<svg version="1.1" id="Layer_1" xmlns="http://www.w3.org/2000/svg" xmlns:xlink="http://www.w3.org/1999/xlink" x="0px" y="0px" viewBox="-71.0754 614.868 5024.0752 2699.0593" enable-background="new -71.0754 614.868 5024.0752 2699.0593" xml:space="preserve">
<g>
	<path d="M1440.58,911.6599c18.2946,26.8263,43.4888,50.1799,69.2201,69.78c6.1587-51.5856-1.5808-106.558-21.8201-154.33   c23.4856,7.5542,38.177,33.6032,47.6493,54.6684c11.3711,25.2882,18.5898,52.8243,23.1808,80.1116   c6.6184-2.1464,11.8959-22.571,13.9784-28.8438c4.1063-12.3691,6.61-25.0612,7.2246-38.0927   c1.1863-25.1489-4.7894-49.4955-16.9025-71.5187c-11.0526-20.0952-26.959-36.287-47.6635-46.3496   c-21.7737-10.5822-43.3082-14.4539-57.5371-35.6153c-5.2263,29.8633-16.4691,55.4146-28.3403,83.047   C1416.4075,855.1543,1421.9927,884.5975,1440.58,911.6599C1451.13,927.13,1432.86,900.4199,1440.58,911.6599z"/>
	<path d="M1599.51,937.73c34.1799-32.5724,74.0959-66.2808,119.66-81.23c-3.2207,11.2675-10.5885,22.1613-16.7354,32.0587   c-7.5687,12.1867-15.9047,23.8976-24.9519,35.0311c-8.3499,10.2755-17.3062,20.0594-26.8218,29.2664   c-10.1002,9.7725-22.2477,17.7269-31.921,27.8138c45.1692,11.1483,86.106-9.1609,111.2634-46.7301   c12.0594-18.0091,22.097-37.2793,29.0997-57.8199c7.0687-20.7343,10.1936-41.9849,21.3368-61.0099   c-23.7673-6.8043-50.7935-8.0225-75.366-7.1504c-22.8839,0.8122-48.0468,4.4661-67.0502,18.2747   c-40.668,29.5508-51.3606,85.8049-59.1438,132.0958C1585.8617,951.5684,1592.3207,944.2793,1599.51,937.73   C1622.05,916.25,1592.3199,944.28,1599.51,937.73z"/>
	<path d="M1307.78,1050.64c26.5297,15.6582,56.3589,27.8629,87.6979,26.537c30.7657-1.3016,57.0509-17.046,85.5721-26.517   c-29.5747-35.8327-77.3247-48.1782-122.2001-46.63c14.4741-15.0605,43.1216-17.0707,62.5685-17.3785   c24.3083-0.3847,47.8439,3.8916,71.6416,8.2084c-20.0447-39.5519-67.8745-72.7885-113.6018-62.8008   c-23.5792,5.1501-42.3862,21.1196-59.6097,37.1123c-15.6895,14.5684-35.6548,38.1097-59.4585,35.6586   C1270.4762,1024.2618,1289.4197,1039.4443,1307.78,1050.64C1311.66,1052.9301,1296.12,1043.53,1307.78,1050.64z"/>
	<path d="M2566.72,963.05c-5.8855-7.0665-11.6919-14.2182-16.8962-21.8082c-5.293-7.7192-7.9214-16.5605-12.8438-24.2619   c-59.9346,42.1631-114.2007,109.0459-111.3396,186.2349c1.4546,39.2424,13.6328,79.2219,37.7202,110.5537   c10.261,13.3468,22.4448,25.1865,35.8887,35.3096c8.4661,6.375,17.762,11.5782,27.2908,16.1807   c5.8154,2.8088,6.8926,1.5146,12.1499-1.4487c4.9187-2.9452,10.5481-4.2823,16-5.8501   c-10.7698-20.0199-22.4226-39.1008-30.8042-60.3518c-8.8677-22.4836-15.7388-45.8636-19.6057-69.7482   c-3.5581-22.7778-4.0688-46.1088-0.5901-68.9299c1.6599-11.9178,4.7988-23.5897,8.7949-34.9261   c2.2905-6.4981,7.0571-24.92,13.4351-27.9639c-1.6782,90.0851,5.7683,196.691,69.47,266.97   c34.2612-40.802,67.0432-100.3951,58.7615-155.4774C2645.7012,1051.3308,2602.303,1004.554,2566.72,963.05   C2557.8999,952.46,2567.02,963.4,2566.72,963.05z"/>
	<path d="M1569.73,983.51c-26.7584-9.4012-56.1095,5.7964-65.6044,32.1077c-9.6937,26.8621,4.1899,60.9377,32.5789,69.5182   c27.4061,8.2834,56.1326-6.3425,65.2439-33.5967C1610.9778,1024.53,1596.9199,993.1459,1569.73,983.51   C1553.62,977.85,1586.83,989.5701,1569.73,983.51z"/>
	<path d="M1753.42,1010.8c-18.9562-11.3862-40.7911-17.2875-62.9363-15.8875c-18.6522,1.1791-46.647,7.9875-57.2838,25.1974   c43.8243,3.9307,97.6412,17.0137,124.0601,55.85c-32.7531-12.3738-67.4683-23.1587-102.8452-22.7939   c-15.7366,0.1622-32.9869,2.7272-45.9048,12.444c-6.7631,3.8228,18.3842,33.8121,21.8765,36.9868   c26.7642,24.3309,60.6943,27.2432,95.2218,26.1262c18.8284-0.6091,37.6293-1.9241,56.3811-3.7096   c18.3912-1.7512,34.519-2.7611,51.9307,4.1366C1823.4791,1083.1609,1793.9982,1035.6488,1753.42,1010.8   C1747.26,1007.1,1764.1,1017.3401,1753.42,1010.8z"/>
	<path d="M2617.1899,1275.9399c33.4119-17.4923,68.54-31.2885,104.9941-40.9655c36.2791-9.6306,79.637-17.4862,116.906-9.1545   c-18.2708,6.8008-37.5706,10.8297-55.9102,17.6001c-18.4045,6.3853-36.6138,13.3644-54.4146,21.2874   c-32.9529,14.6667-69.4104,32.6381-92.6753,61.1326c47.5957,31.4829,115.8298,29.8468,165.9199,6.2101   c51.1721-23.8159,92.5955-69.479,121.2844-117.2937c3.5005-5.834,6.8372-11.8011,11.0356-17.1764   c-3.9851-4.1429-10.3066-6.1118-15.3203-8.6893c-14.627-7.5203-29.0635-15.4098-43.3198-23.6106   c-24.8965-14.1467-53.408-23.8383-81.9084-26.8306c-28.563-2.9989-59.5339,1.144-84.6726,15.8138   c-24.4343,14.2588-44.2112,34.0348-59.8438,57.521c-6.6382,9.9731-12.519,20.4371-17.8384,31.1675   C2626.3037,1253.2859,2619.8779,1264.6716,2617.1899,1275.9399C2647.3501,1260.15,2617.45,1274.85,2617.1899,1275.9399z"/>
	<path d="M2511.21,1296.22c6.6501-6.8704-12.5574-30.4292-17.4058-37.1244c-9.1677-12.6594-19.9622-24.2986-32.0981-34.1621   c-26.2559-21.3395-59.8923-32.6746-93.5957-33.4915c-71.7412-1.739-134.916,39.1399-206.2703,38.858   c8.2551,9.6122,18.8975,16.7676,26.9082,27.0026c8.1785,10.4491,15.2542,21.6996,22.1584,33.0135   c14.7539,24.1771,29.2637,48.6989,48.7673,69.4501c37.509,39.9083,93.1025,67.0215,148.4771,54.39   c26.0916-5.9517,52.8018-20.5392,70.8503-40.5388c10.3657-11.4863-53.9792-45.5927-63.0386-49.9153   c-53.1221-25.3473-110.9795-41.2229-168.1428-54.4421c40.0796-13.1715,88.489-1.7115,127.4297,10.3237   c41.8203,12.9254,82.1519,31.2794,120.2603,52.7362C2491.4622,1319.1306,2501.6672,1304.3905,2511.21,1296.22   C2512.4199,1294.97,2506.6899,1300.09,2511.21,1296.22z"/>
	<path d="M1719.86,1266.1801c-81.3566-16.624-168.1053-18.2111-247.4211,8.9388   c-72.4159,24.7881-141.7185,72.2041-177.5088,141.6311c6.3123-4.314,10.4452-12.3594,16.6362-17.4032   c8.4897-6.9166,17.8599-11.9857,28.3854-15.0698c22.0366-6.4569,45.5073-5.3016,68.2046-4.6829   c46.2941,1.2622,91.7994,0.5885,136.8468-11.6064c21.8016-5.902,43.0553-13.8654,63.427-23.6077   c20.7046-9.3075,40.0615-21.2144,60.9425-30.2169c20.778-8.9583,42.4031-16.0648,64.6052-20.5083   c23.1315-4.6293,45.0369-4.5458,68.4423-3.7848C1776.479,1278.5026,1747.4891,1271.9559,1719.86,1266.1801   C1709.24,1264.01,1738.42,1270.0601,1719.86,1266.1801z"/>
	<path d="M2592.5,1296.66c-24.1145-14.0273-55.8169-4.6616-69.6553,19.1462c-14.1655,24.3708-7.1995,57.7007,16.8479,73.1294   c23.0095,14.7628,55.9983,8.101,70.655-15.3512C2626.5142,1347.7168,2619.3281,1312.2505,2592.5,1296.66   C2575.24,1286.62,2603.8401,1303.25,2592.5,1296.66z"/>
	<path d="M188.41,1469.4399c3.1033,1.2214,6.214,2.5027,9.0099,4.3501c3.3082-4.326,1.8656-11.5869,2.4412-16.7103   c0.8114-7.2224,2.4682-14.3412,4.8078-21.2189c4.0514-11.9103,10.5166-24.3016,20.5284-32.2687   c10.407-8.2815,23.978-10.5549,36.9246-8.579c6.7041,1.0231,13.1807,3.2451,19.3178,6.0925   c4.8326,2.2422,9.6125,6.2594,14.9003,7.2643c-4.1713-9.2206-13.5912-17.4991-20.1622-25.056   c-8.7196-10.028-17.6836-19.8478-27.014-29.3118c-8.3663-8.486-40.3077-45.5435-53.3249-32.9771   c-16.5941,16.0194-15.7474,46.8003-15.4089,68.0049C180.7701,1416.0046,184.0889,1442.8431,188.41,1469.4399   C191.51,1470.66,184.09,1442.85,188.41,1469.4399z"/>
	<path d="M4592.3501,1398.34c-2.7212,3.1597-5.6304,6.2607-7.4399,10.0701c11.7437-4.5498,21.5264-11.5323,34.334-13.3966   c12.9189-1.8805,26.1543,0.4415,36.5381,8.6443c20.5034,16.1969,25.7568,44.8656,26.668,69.4222   c3.6143-0.9349,10.23-1.795,10.877-6.3318c0.708-4.9648,1.3164-9.9457,2.022-14.9126c1.9399-13.6489,3.5259-27.3529,4.4692-41.1091   c1.6636-24.2573,3.2739-51.9886-5.3716-75.2c-3.1035-8.3322-9.1821-19.829-19.646-16.2816   c-11.2466,3.8127-21.4941,14.2083-29.9941,22.2118C4626.0288,1359.1381,4608.7808,1378.4781,4592.3501,1398.34   C4589.6201,1401.51,4600.4902,1388.5,4592.3501,1398.34z"/>
	<path d="M308.51,1410.11c10.0972,12.7122,19.1123,26.5526,31.1274,37.5304c12.6421,11.5507,24.8982,23.8204,35.6367,37.1775   c10.3462,12.869,18.9335,26.8857,25.2102,42.175c3.5521,8.6523,5.9877,17.7496,7.3885,26.993   c1.4321,9.4502,0.3107,18.8932,1.1571,28.364c7.7022-5.9071,6.4574-26.4333,6.0921-35.0958   c-0.5295-12.5565-3.2647-25.0715-7.6021-36.8741c-8.349-23.2417-21.6191-44.3831-36.691-63.8223   c-33.0439-42.6189-80.1356-70.9613-109.459-116.6078c-1.2046,7.2682-3.3195,14.4502-3.36,21.87   c6.0133,6.5154,11.9702,13.0829,17.8524,19.717C287.019,1384.1198,298.1509,1396.8569,308.51,1410.11   C314.92,1418.1801,306.72,1407.8199,308.51,1410.11z"/>
	<path d="M133.01,1456.89c0.548,4.5208,15.281,2.9336,18.6267,3.3955c9.6965,1.3391,19.1592,3.9302,28.5733,6.5444   c-1.1644-19.9447-5.2975-39.7548-6.5693-59.7629c-0.6977-10.9769-1.392-22.0845-0.6182-33.0708   c0.366-5.1959,3.0662-10.7355-3.0738-11.4958c-6.1592-0.7627-12.3745-1.0199-18.5774-0.9054   c-6.34,0.1171-21.3238-1.306-25.8863,3.8387c-5.8124,6.5542-5.1287,18.4811-4.855,26.5863   C122.0608,1414.0608,127.1593,1435.6573,133.01,1456.89C133.25,1458.87,127.16,1435.66,133.01,1456.89z"/>
	<path d="M4745.02,1459.34c6.623,1.1661,13.71-49.4636,14.4922-55.8013c1.271-10.3009,2.105-21.3876-0.5337-31.5491   c-2.8115-10.8252-12.3594-9.4937-21.6855-10.1508c-4.6924-0.3307-9.4136-0.4263-14.1157-0.2557   c-2.5479,0.1101-5.0928,0.2767-7.6333,0.4998c-4.6279,0.3735-7.8848-1.5656-7.7734,4.1128   c0.2217,11.3292,0.7324,22.4768,0.2017,33.8342c-1.0479,22.4222-5.1802,44.4-6.9023,66.7101   C4715.5664,1462.4897,4729.8638,1459.4115,4745.02,1459.34C4747.6899,1459.8101,4738.6602,1459.37,4745.02,1459.34z"/>
	<path d="M1999.48,1386.34c-36.8949-25.3418-74.7963-49.5037-116.8558-65.4517c-42.4814-16.1079-86.1254-21.0159-131.0299-13.4182   c-43.7141,7.3962-83.8723,25.9713-122.9642,46.1899c-37.9414,19.3579-82.7455,48.1967-127.42,43.1799   c12.9127,18.9092,33.3394,35.6078,52.0898,48.4308c19.7047,13.4755,41.1147,23.7181,64.0822,30.1903   c48.4695,13.6584,100.3591,6.5402,147.8081-7.6483c48.7743-14.5848,94.9177-40.8669,145.1802-49.8281   c23.5308-4.1953,48.4897-5.3278,72.3137-3.144c11.7012,1.0725,23.4468,2.6969,34.9823,4.9357   c5.8633,1.1381,11.6913,2.4602,17.4661,3.9857c6.2716,1.6567,13.0374,5.067,19.4478,5.468   C2037.6271,1413.4728,2018.2058,1399.8827,1999.48,1386.34C1990.5699,1380.22,2009.5601,1393.63,1999.48,1386.34z"/>
	<path d="M316.02,1618.01c-22.9475-34.4004-36.2751-77.2959-44.77-117.4401c27.148,8.5197,54.2233,19.703,78.3099,34.9772   c10.9584,6.9491,21.444,15.0486,30.0923,24.775c4.1905,4.7129,7.8691,9.8906,10.8514,15.4506   c2.6606,4.9602,4.2311,16.0942,8.5864,18.9073c3.7409-26.054,2.3663-50.2888-9.4925-74.3292   c-11.2697-22.8463-28.4715-41.7341-46.7363-59.1877c-25.8536-24.7053-87.9032-88.3165-121.1768-42.3091   c-30.8264,42.6237-10.7453,106.2284,12.0661,147.6663c11.5462,20.9742,26.4974,41.0919,44.7229,56.7346   c17.0985,14.6755,45.2253,32.5465,68.9065,23.6851c-5.1298-4.0275-11.1283-6.4017-16.0702-10.7997   C325.3804,1630.8635,320.5478,1624.4907,316.02,1618.01C305.04,1601.55,323.3,1628.4301,316.02,1618.01z"/>
	<path d="M4472.2998,1580.09c0.4014-11.5841-0.1216-22.5194,2.4399-33.9487c2.8306-12.63,7.6475-24.7574,13.916-36.0696   c11.9443-21.5542,28.7495-39.3472,46.4526-56.2428c18.6113-17.7623,33.0054-38.6639,49.5117-58.3672   c8.7964-10.5005,17.7993-20.8479,27.0176-30.981c3.9478-4.3395,8.1074-8.4814,12.0122-12.8607   c-0.979-7.1342-2.2588-14.2261-3.7998-21.26c-7.5669,9.2389-13.4668,19.5723-21.478,28.5527   c-8.3164,9.3223-17.4355,17.8928-26.814,26.1324c-19.8433,17.4337-39.0718,34.6355-55.9824,55.0505   c-30.5415,36.8706-63.5742,92.7288-44.6157,142.1443C4471.4067,1581.5233,4471.853,1580.8066,4472.2998,1580.09   C4472.5698,1572.3,4471.9702,1580.63,4472.2998,1580.09z"/>
	<path d="M155.03,1546.0699c16.3177-9.6844,34.7351-15.7081,53.55-18c-3.3297-11.7194-6.194-23.5757-8.4215-35.5552   c-0.4458-2.3962-0.8654-4.797-1.2588-7.2024c-0.7947-4.8612-2.1216-4.2893-6.3726-6.1605   c-5.4322-2.3911-11.1754-4.1282-16.8623-5.8096c-21.312-6.301-45.0274-10.2344-66.3817-1.9398   c-8.931,3.469-17.8941,9.7485-22.723,18.2375c-3.2697,4.7303,13.5656,20.4977,16.6777,23.749   c7.2912,7.6176,15.2754,14.575,23.8457,20.7196C133.9251,1539.0138,146.5671,1550.3893,155.03,1546.0699   C171.3401,1536.39,153.0901,1547.0601,155.03,1546.0699z"/>
	<path d="M4774.5801,1472.11c-22.8354-8.8158-47.8301-5.2161-70.6211,1.7416c-5.4502,1.6639-10.7954,3.6528-16.0918,5.7506   c-5.6909,2.2539-5.3052,4.201-6.2559,9.9092c-2.1592,12.9646-5.4966,25.6897-8.7612,38.4087   c15.1553,1.6453,30.1782,6.7273,43.9077,12.9601c5.0957,2.3132,10.9438,8.0872,16.4937,5.7422   c6.9844-2.9509,13.7842-7.4846,19.9795-11.8246c12.0044-8.4099,22.9004-18.7937,32.4116-29.9211   c2.2354-2.6146,4.376-5.3114,6.377-8.11c3.7124-5.1927,4.209-5.9124-0.0161-10.8782   C4787.1694,1480.2076,4781.106,1475.6715,4774.5801,1472.11C4764.5298,1468.23,4782.9902,1476.7,4774.5801,1472.11z"/>
	<path d="M4552.6001,1622.53c12.1592-15.2791,20.8696-33.1482,27.9692-51.2456c7.2437-18.4648,15.6738-38.7576,18.4009-58.5044   c-23.4287,6.5547-47.1338,18.37-67.3037,31.8953c-18.9321,12.6954-38.7637,30.7194-40.6123,54.9417   c-0.7788,10.2034,2.2661,22.7029,10.0859,29.7931c-3.4663,9.8782-16.0757,19.4562-23.0576,26.9847   c-18.4985,19.9475-37.9287,39.1372-57.9023,57.6052c13.3916-26.2264,24.4287-51.1483,24.2666-81.359   c-0.1479-27.5939-10.4624-56.235-35.4834-70.4849c-24.5596-13.9873-55.7915-6.4329-69.4907,18.6898   c-5.6328,10.3306-8.0664,23.584-0.1001,33.3948c9.5317,11.7393,24.7876,8.5446,35.9272,0.9893c-7.5728-0.1396-16.04,1.8-22.79-2.72   c-6.3237-4.0961-7.4985-12.7544-5.5098-19.5c4.6743-16.3124,27.1455-24.8698,41.4624-15.4176   c14.4966,9.5709,19.9692,27.6179,10.6709,42.8983c-9.7412,16.0084-30.249,23.8584-47.9434,26.5693   c-35.0952,6.0724-69.8008,28.163-74.0449,66.5813c-1.9536,17.6829,4.0303,35.4642,17.8481,47.0287   c13.6016,11.3831,32.5508,14.1868,49.687,14.9399c-26.502,20.8597-57.0815,41.1462-87.73,55.34   c-10.8916-122.558-88.0366-233.8516-203.3821-279.825c-108.1975-43.1244-233.4653-20.5994-321.2883,55.3165   c-86.2742,74.5768-127.3594,190.4736-111.4797,302.8585c-28.6431,1.6034-58.0281-0.7993-86.77-0.65   c-27.4331-0.567-54.9023,3.0897-82.2959,2.8746c-27.2949-0.2144-55.6125,4.2024-82.6865,7.5765   c-27.5476,3.4332-54.967,7.6958-82.1917,13.151c-5.9832,1.199-11.9951,2.4005-17.9355,3.7927   c-5.7109,1.3385-12.7793,5.2434-16.4763-0.7811c-6.5693-10.7054-14.9995-20.4763-23.7961-29.3939   c-19.2874-19.5522-42.4863-34.1276-67.0876-46.0798c-50.6477-24.6069-106.0322-36.3201-162.2302-36.3201   c0.5791-15.4178,0.4358-30.9543-2.1802-46.2c28.8455,0.7341,58.9832,1.1157,85.1863-12.8019   c12.1631-6.4604,20.3308-16.719,17.7468-30.9996c-1.1958-6.6084,5.7507-9.8457,10.2083-14.1014   c5.387-5.1428,10.4741-10.6024,15.1885-16.3689c36.8711-45.0981,46.1318-114.6378,11.6404-164.4282   c2.585,29.14,1.2524,57.2747-12.6685,83.6506c-12.7222,24.1047-33.4077,42.9417-55.9146,57.8164   c-48.0442,31.7524-106.3,52.7885-161.9661,66.356c-59.9807,14.6193-122.2019,18.3887-181.6489,35.3468   c-56.8372,16.2136-112.6958,43.3779-154.6086,85.8119c-37.1797,37.6418-65.0266,84.4967-86.2234,132.6984   c-5.1636-11.0536-6.3875-25.1565-9.2778-36.9681c-3.4211-13.981-5.8535-28.0496-6.6716-42.4451   c-1.6614-29.2291-2.2273-58.0873,0.2195-87.2968c5.5625-54.1228,20.8386-108.0996,52.3848-153.0347   c27.4827-39.1465,72.4309-82.5669,123.616-82.0026c52.6426,0.5806,91.2603,60.222,61.1492,106.6772   c1.3271-44.744-43.9219-80.1869-86.467-60.8275c-43.1165,19.6194-47.7141,80.6876-11.0874,108.8949   c36.2771,27.938,90.5466,4.5073,112.2595-30.5529c24.9248-40.2458,25.1951-92.6564-10.095-126.5546   c2.1531-1.7698,10.5649,2.4304,13.4929,3.1453c5.8379,1.4252,11.7717,2.4425,17.7405,3.1283   c11.9634,1.3745,24.0444,1.4261,36.0591,0.8179c26.1985-1.326,51.7593-7.5514,77.6213-11.4099   c5.7932-0.8643,11.6311-1.5332,17.4941-1.6071c5.0073-0.0631,11.1016,2.0178,15.917,1.2343   c2.8364-0.4615-2.8911-11.2689-3.7124-13.752c-2.2031-6.6603-4.1929-13.3944-5.9805-20.1782   c-6.2363-23.6682-7.8108-48.2184-14.3945-71.7961c-12.2676-43.9318-39.2229-82.1545-79.7017-104.2413   c-43.7805-23.8884-96.2317-30.7455-145.5161-28.2611c1.4692,37.3738,30.1992,72.2465,55.0237,97.8123   c13.9871,14.4049,28.9792,27.8074,44.7813,40.1903c16.7854,13.1534,35.0171,24.2817,51.8452,37.2875   c-19.1445-1.1624-39.6558-11.2114-56.3701-20.02c-18.6667-9.8376-36.3562-22.1738-52.4385-35.8071   c-15.2461-12.9246-29.3523-27.1628-42.4377-42.2622c-3.0796-3.5535-6.1033-7.1554-9.0735-10.8009   c-1.4844-1.822-2.9556-3.6548-4.4136-5.4982c-3.1101-3.9315-3.6394-2.2438-7.9966-0.8699   c-10.5371,3.3228-21.2141,2.761-32.0601,1.4883c3.6865,62.927,41.5718,119.9712,87.48,160.58   c-18.1204-3.3339-35.0945-6.2585-53.6191-3.735c-17.7297,2.4153-34.73,8.6672-50.6809,16.625   c1.2839-5.0446,5.1646-9.5422,7.5728-14.1965c2.6316-5.0858,4.9233-10.3438,6.9407-15.7018   c4.5454-12.0719,7.9299-24.6061,9.4038-37.4368c2.8955-25.2076-0.1035-52.1719-9.9971-75.6549   c-31.8723,17.45-57.7783,48.4536-77.9402,78.0859c-10.5232,15.4662-19.8323,31.7427-28.103,48.5165   c-8.2373,16.7057-13.4563,35.1578-22.0369,51.5476c1.5046-44.252,14.3228-89.9606,33.0449-129.9324   c8.762-18.7064,19.3257-36.594,31.8232-53.0532c3.2939-4.338,6.7205-8.5754,10.2788-12.6995   c1.4265-1.6536,2.8743-3.2886,4.343-4.9049c-2.1938-2.6056-4.5081-5.1068-6.6726-7.7372   c-6.7659-8.2212-11.9487-17.4054-14.0173-27.9429c-65.3474,14.3336-127.0413,61.3597-137.6462,130.4674   c-5.5037,35.865-2.4216,74.9133,7.0859,109.8346c5.0645,18.6019,12.1514,36.5311,20.7146,53.7913   c8.1975,16.5229,17.5024,32.7463,20.7456,51.1168c10.6902-33.0969,37.8579-59.6676,70.3801-72.42   c-15.1055,27.6912-28.2522,55.0167-37.1345,85.4293c-9.467,32.4137-14.6831,65.5967-18.7456,99.0607   c-7.0732-11.7081-10.5369-26.9575-15.677-39.6583c-6.03-14.8998-12.3472-29.6838-18.9795-44.3256   c-12.4812-27.5538-25.9351-54.728-40.6323-81.1704c-29.8408-53.6881-63.4519-105.0653-101.2014-153.5333   c-18.4985-23.7511-37.8557-46.833-58.1787-69.0486c-18.6528-20.3899-41.9065-38.7454-56.498-62.2086   c-32.7251-52.6219-59.8303-109.863-74.1538-170.3604c-14.6125-61.7188-17.7385-138.183,20.1692-192.7532   c9.426-13.5692,19.0591-19.3989,34.5054-24.2713c15.5183-4.8951,30.9722-10.1907,45.6943-17.1708   c14.512-6.8803,27.2805-15.5739,39.4407-26.0041c13.0298-11.176,24.5388-16.339,41.0813-10.9556   c2.458-19.1301-0.1328-52.6616-25.5188-53.7158c-11.8936-0.4939-22.4197,5.6531-34.0342,6.5359   c-5.6589,0.4301-9.863-3.0328-6.8962-8.7993c2.5586-4.9733,7.7683-8.3771,12.5222-10.975   c50.7783-27.748,108.0046,11.1696,161.1189-3.1271c24.4678-6.586,46.7146-24.5024,60.0173-45.9075   c12.9792-20.8849,18.8191-48.5981,48.4905-48.597c25.9219,0.001,51.9636,10.6625,70.4619,28.6779   c19.592,19.0808,27.2104,42.9694,35.0984,68.238c10.1199-25.4234,0.8684-60.2479-9.5535-84.1027   c-11.1465-25.5135-29.47-47.0792-52.3267-62.8873c-22.8086-16.205-49.4954-25.7688-76.4326-31.7583   c-27.8918-6.2018-60.6372-10.7144-89.1074-6.2017c-120.4421,8.0963-211.3262,105.1973-257.1248,210.0956   c-32.9768,75.5312-48.3212,159.9622-41.2903,242.2191c3.5889,41.9858,13.7217,83.4738,28.3684,122.9442   c7.2322,19.4893,15.6265,38.8226,25.2258,57.2687c4.1885,8.0482,8.5081,16.0406,12.9639,23.9436   c5.0676,8.9878,12.1155,17.6919,16.197,27.0988c-4.0334,0.4142-11.5005-9.191-14.6406-12.0065   c-5.3281-4.777-10.7458-9.453-16.2058-14.0782c-12.2173-10.349-24.6519-20.3967-37.2351-30.2948   c-23.3408-18.3601-47.5256-35.4694-72.2111-51.9617c-50.9329-34.0282-105.269-63.0925-161.1884-88.0071   c-56.078-24.9852-115.6774-46.8563-175.6726-60.2947c-30.7688-6.892-61.4174-14.3413-92.6777-18.7526   c-30.7616-4.3409-61.4111-7.3971-92.2681-10.7218c-60.0085-6.4657-122.101-3.8485-182.0813,1.5812   c-60.3589,5.464-120.3269,16.4419-178.8634,32.076c-118.6909,31.7003-231.6072,83.9092-333.2239,152.8582   c-21.6646,14.6998-41.7944,32.314-63.842,46.292c5.7348-1.5487,10.9332-6.8578,15.6453-10.2462   c5.9645-4.2889,11.987-8.4971,18.0647-12.6239c12.9366-9.0063,26.1108-17.6699,39.4766-26.0255   c25.7065-16.0704,52.116-30.9993,78.9634-45.0745c54.9721-28.624,112.69-52.4236,171.7616-71.1359   c119.537-37.8662,242.6447-52.735,367.699-49.9969c242.7615,5.3152,480.1563,102.231,665.83,256.6399   c188.689,156.9161,322.4407,376.4423,381.0623,614.2604c4.8647,19.7356,9.1738,39.6078,12.9373,59.5825   c1.4163,7.2681-5.0879,18.2002-7.2776,25.0212c-3.3174,10.3337-6.3503,20.7556-9.3726,31.1787   c-26.5378-110.8162-80.1262-223.9108-164.231-302.6606c-40.9197-38.3145-92.7432-62.6774-148.4336-69.5908   c-27.8469-3.4569-57.8394-2.2506-84.8538,5.6758c-22.7725,6.6819-53.416,19.3942-66.2115,40.9258   c20.6429,6.1788,36.2007,22.8116,40.2,44.12c-19.5859-4.5481-40.0367-6.1851-60.098-4.5005   c-19.9337,1.6738-36.7875,8.1107-54.8419,16.0804c-4.0704-8.5967-6.4233-17.7728-7.974-27.1245   c-1.6354-9.8627,0.083-19.7987-1.4561-29.5354c-3.3804,14.7499-3.2715,29.9885-2.9446,45.0288   c0.1283,5.8993,4.55,16.5883-0.1765,20.384c-5.5293,4.4404-10.551,9.4995-15.0258,14.9983   c-17.5073,21.5139-25.7249,48.5734-28.8632,75.7788c6.2773-6.8364,8.0582-14.7137,18.2147-17.5284   c8.0999-2.2446,24.1422,0.6011,26.2853,9.8054c5.0026,21.4857,17.2377,41.6143,30.769,58.7666   c3.4948,4.4301,7.1742,8.7145,11.0264,12.8375c1.541,1.6493,3.1091,3.2722,4.7046,4.8689   c-1.9165,2.6754-3.9458,5.2667-5.9596,7.8685c-6.7417,8.7106-12.4396,17.9551-17.7274,27.6034   c-1.0471,1.9208-2.1108,3.8323-3.1913,5.7345c-2.6418,4.6266-4.2896,1.3995-8.245-0.7223   c-5.502-2.9514-11.0211-5.871-16.5604-8.7515c-11.0787-5.761-22.2391-11.3661-33.5034-16.7557   c-42.1897-20.1866-85.7985-37.476-130.2399-51.9889c-46.5221-15.1925-93.7084-25.5657-141.553-35.458   c16.8494-15.7135,33.6147-30.0854,48.2965-48.0504c15.6541-19.1547,29.3228-39.9802,41.7325-61.3586   c11.9989-20.6708,22.8282-42.0436,32.2759-63.9974c9.8656-22.925,21.9292-47.9088,25.8051-72.7435   c-30.9341,65.1239-80.5973,125.1532-143.48,161.47c-61.3765,35.4738-159.5701,57.1301-205.42-13.6   c-0.9906,27.8879,6.4935,55.9794,20.9401,79.8301c-21.9092,0.762-44.1284-0.9918-66.0828-1.0099   c-21.8278-0.0181-43.5975,0.642-65.3972,0.9198c7.8666-62.5259,1.1742-122.9137-23.1683-181.2924   c-22.2399-53.3361-58.9194-100.7601-105.2148-135.3818c-97.1848-72.6791-229.199-83.8817-336.5441-26.5676   c-99.3416,53.041-159.6927,154.1157-171.1928,264.6318c-14.7474-6.2344-28.6531-15.7714-42.25-24.14   c-15.3454-10.1534-31.1526-19.696-45.53-31.23c17.7778-0.5016,37.6026-3.7267,51.2589-16.1179   c13.96-12.6669,18.9486-32.0663,15.7426-50.3378c-6.5394-37.2686-40.7432-55.585-74.5215-62.1823   c-16.3988-3.2029-34.3282-9.3158-44.7389-23.2471c-9.8547-13.1874-8.8282-31.2876,3.7215-42.3761   c12.42-10.974,33.0179-9.3981,42.6871,4.5424c4.563,6.5787,6.4759,16.0732,1.769,23.1338   c-5.5622,8.3434-17.3062,6.4973-25.8287,6.335c9.4478,7.437,23.4742,10.1692,33.0385,1.4866   c10.2571-9.3116,8.3528-24.655,2.2373-35.6842c-14.0547-25.347-45.4093-32.8531-70.2133-18.5632   c-22.9652,13.2307-33.0976,38.9716-34.645,64.3738c-1.9238,31.5807,9.1599,59.8446,23.9525,86.9871   c-18.6204-18.1134-37.4037-35.9092-55.2469-54.8126c-9.2335-9.7822-18.2957-19.7272-27.1291-29.8724   c-1.6059-1.8444-3.2041-3.6953-4.7945-5.5531c-3.2758-3.8265-1.7605-4.446-0.4324-8.9452   c1.8789-6.3652,2.2545-12.3121,1.343-18.8728c-3.1102-22.3851-22.649-39.552-40.5573-51.3486   c-19.6534-12.9462-43.8183-26.1616-66.9427-31.3851c6.7443,28.2964,16.1846,56.6133,29.3579,82.5958   c10.4817,20.6736,31.9974,56.4266,59.9395,40.16c4.1625-2.4232,4.2892-5.0538,7.9964-0.9243   c2.4345,2.7118,4.87,5.4227,7.3091,8.1304c4.8792,5.4166,9.7725,10.8207,14.6993,16.1942   c10.6738,11.6415,21.5067,23.1416,32.6832,34.3032c20.5576,20.5302,41.8826,40.5464,64.4946,58.7906   c90.6246,77.6688,200.1079,133.5942,317.118,158.1608c59.1528,12.4192,120.1432,18.9045,180.5595,19.9303   c15.5502,0.264,31.1035,0.2892,46.6555,0.2378c7.7761-0.0258,15.5522-0.0706,23.3282-0.1141   c3.8878-0.0217,7.7756-0.0433,11.6635-0.0619c7.3053-0.0352,7.4893,0.1313,11.8491,5.7531   c16.3574,21.0916,41.1721,39.8726,69.0487,38.5642c13.3315-0.6256,24.2047-8.2625,36.9974-10.9001   c5.2938-1.1344,15.0868-1.9923,17.5004,3.8994c2.9606,7.2268-1.5551,14.3917-6.2117,19.7281   c-18.2684,20.9352-49.5493,29.7343-76.1783,32.6854c-27.1775,3.012-59.1324,5.1819-82.8617,20.1229   c-25.5154,16.0657-29.8644,45.7622-46.0937,68.793c-24.1138,34.2195-68.9202,49.4402-109.055,52.3411   c-21.8246,1.4822-44.0319-1.2051-64.8594-7.9314c-10.36-3.3459-20.397-7.6963-29.9092-12.9929   c-3.3834-1.884-23.1154-17.1978-24.9715-16.1655c18.5002,20.5488,48.8774,33.1179,74.1436,42.812   c27.1191,10.405,55.2908,16.5176,84.0064,20.438c60.3766,5.5137,121.6912-6.2729,174.9877-35.3896   c48.0385-26.2441,89.7056-65.9919,119.2161-111.981c15.5948-24.303,27.933-50.4735,36.7853-77.9568   c2.1267-6.6029,7.1035-37.2983,12.6934-38.1589c15.3331-2.3608,32.3959-0.6404,47.9305-0.7689   c23.0942-0.1913,46.2671-0.3064,69.3549,0.2977c7.9064,0.2068,24.0396-2.061,29.7385,3.9336   c7.245,7.621,16.2673,12.614,25.0836,18.1238c-10.6775,5.2759-22.4058,8.6091-33.2046,13.8186   c-10.5933,5.1105-20.8293,10.8921-30.5677,17.4918c-18.7567,12.7118-35.842,28.0645-49.639,46.0867   c-28.3309,37.0074-39.1039,87.6095-22.4751,131.9742c7.5933,20.2583,19.3992,39.7349,38.3098,51.1379   c20.7703,12.5247,47.3873,13.0554,69.6213,3.9587c20.0886-8.2188,38.1537-25.4939,35.6572-48.8616   c-2.4501-22.9346-23.4675-36.0254-44.4319-39.9363c8.7726,8.949,18.8063,15.1113,24.0372,27.1079   c5.6133,12.8735,0.3717,26.042-10.2218,34.4211c-22.0823,17.4663-54.058,5.3982-68.9454-15.4392   c-12.8926-20.0781-11.8894-48.3181,3.11-67.03c18.038-21.1812,48.0837-22.1809,72.809-14.2312   c28.0024,9.0032,48.2732,28.0591,73.2611,42.3113c24.7845,14.1228,51.8207,21.9373,80.451,21.2961   c55.1985-1.2363,110.2869-44.8564,106.052-103.7982c-2.639-36.731-25.9851-66.2572-50.2332-91.918   c51.1901,10.4056,101.7993,27.9164,150.2001,47.3201c25.1477,10.0382,50.0092,21.144,74.2209,33.2687   c11.7462,5.8822,23.4435,11.8019,35.0995,17.8638c4.2305,2.2002,9.8193,3.2244,8.0995,8.3176   c-2.4961,6.3828-4.4355,12.9807-5.8281,19.6904c-9.3595,45.0928,5.1376,104.7554,51.0177,124.7466   c21.144,9.2131,49.1852,10.2598,70.025-0.3203c19.8087-10.0564,34.5796-34.0996,26.7354-56.3169   c29.5017,18.9138,56.2859,44.6414,81.7822,68.5103c26.25,24.5747,53.7012,50.7034,75.1379,79.6799   c-6.26,0.3472-12.3801-1.6716-17.76-4.75c-0.6484,19.5588,13.6523,34.7239,26.6699,47.3298   c-35.4612,6.6414-61.7695,31.3838-77.04,63.21c-197.9408-144.3413-461.1886-193.0938-694.6224-113.2698   c-57.4319,19.6392-112.7349,46.5137-163.8123,79.3083c-25.0616,16.0911-49.4042,33.2834-72.6677,51.8892   c-10.1677,8.1321-19.7416,17.5635-30.3641,25.0598c-12.1107,8.5466-26.6604,14.2305-39.3868,21.9211   c-48.7693,29.4724-95.3748,68.3083-122.7281,119.1895c-27.3367,50.8499-39.0745,116.9697-27.4784,173.8921   c12.0999-25.2808,22.1878-49.1843,40.0917-71.2214c17.9326-22.0725,39.8995-39.6558,61.2085-58.2739   c21.084-18.4214,40.5374-39.0271,49.8762-65.9919c4.583-13.2327,6.1497-27.2371,9.7965-40.717   c3.9033-14.4287,8.4852-28.6931,14.8207-42.2563c5.5631-11.9092,16.2194-19.7847,26.1826-28.074   c12.3983-10.3154,24.5555-20.9434,37.5038-30.5754c24.3414-18.9392,49.8837-36.0261,76.1279-52.1816   c11.5405-7.1042,23.3827-13.6289,35.2638-19.9966c5.2897-2.835,12.2181-8.896,18.1016-6.5522   c7.3777,2.9392,14.7115,5.7952,22.422,7.7642c27.2686,6.9634,56.2102,5.8149,82.933-2.3474   c20.6986-6.3223,38.2521-17.4133,56.8912-27.9565c15.0444-8.51,39.6738-23.6235,57.7006-18.106   c7.5946,2.3245,9.4768,11.7822,8.115,18.6787c-1.8789,9.5144-9.396,15.2009-17.8135,18.9688   c-20.87,9.3418-45.5746,10.8027-67.9346,14.0017c-44.7296,6.3997-89.5269,15.573-122.8015,48.4053   c-28.2889,27.9126-49.3649,70.7249-49.9254,110.9617c31.1213-33.6487,86.84-23.1199,127.2229-17.3884   c21.7075,3.0811,42.379,3.6567,62.4575-6.906c17.6759-9.2988,32.3583-24.2761,43.2537-40.8604   c12.3531-18.8032,17.8069-37.9382,23.8156-59.27c2.7959-9.9258,6.7808-19.8733,13.1807-28.0598   c2.9011-3.7109,6.941-8.3447,11.7745-9.2974c3.7518-0.7393,9.7709,0.1267,9.1426,5.2197   c-0.9211,7.4668-12.202,16.8752-16.4432,23.395c-5.8074,8.927-11.1097,18.7927-13.9208,29.1199   c-5.2024,19.113,0.0685,40.0513,11.3165,56.0076c3.7842-4.553,5.4561-10.6367,10.0701-14.54   c4.3503-3.7817,9.8079-5.884,15.3052-7.3616c14.0381-3.7729,28.3905-6.3616,42.4508-10.0938   c28.4994-7.5642,54.9122-17.9751,78.756-35.5632c45.75-33.7473,83.8972-86.6726,143.1749-96.4419   c6.9299-1.1421,13.9514-1.7041,20.973-1.7695c6.7672,2.5137,13.6477,4.7034,20.4823,7.0229   c14.79,5.0195,29.4155,10.6311,43.8494,16.5942c28.261,11.6755,55.7887,25.1245,82.38,40.2205   c26.2322,14.8921,51.5986,31.397,75.6584,49.5999c4.9609,3.7534,0.6165,13.1797,0.3125,19.2927   c-0.2947,5.927,0.082,11.8879,1.1221,17.7302c2.2461,12.6172,7.6321,24.751,16.0852,34.4426   c14.8291,17.0017,38.7139,26.0598,59.2405,12.6812c4.1108-2.6794,8.2041-9.3779,12.062-5.4944   c4.1943,4.2219,8.2039,8.6387,12.2107,13.0376c9.02,9.9021,17.7793,20.0417,26.2712,30.4001   c32.573,39.7327,61.4019,82.7317,85.7708,127.9663c25.0806,46.5552,46.2019,95.2366,62.4973,145.5583   c3.8333,11.8369,7.4087,23.7576,10.7051,35.7554c3.4446,12.5371,8.5112,26.229,8.6326,39.3147   c0.2461,26.5322,1.8215,53.0229,2.1301,79.5676c-1.0442-14.0085-1.9324-28.3518-1.9126-42.3938   c0.0103-7.2791-0.3545-14.3396-0.9922-21.5862c-0.728-8.2744,0.843-16.4431-1.2976-24.5955   c-7.6987-29.3184-17.863-58.0615-30.0569-85.8091c-23.8167-54.1958-55.5339-104.9783-94.5046-149.584   c-80.5537-92.2017-190.1934-157.946-307.2596-192.4597c-114.1353-33.6494-244.1604-33.2888-350.8225,24.5422   c-98.4728,53.3909-177.8687,146.1155-195.474,259.2458c-9.2101,59.1826,0.4264,118.8889,28.9954,171.6025   c27.5977,50.9211,66.0313,95.4956,116.98,124.0916c53.1492,29.8311,112.9425,37.7214,172.5408,27.4214   c29.3771-5.0771,57.1213-13.7747,82.6057-29.572c24.5526-15.22,46.5419-35.8394,66.0402-57.0308   c26.8234-29.1526,60.0869-76.3147,49.0079-118.5325c-5.2847,12.144-8.5908,24.8564-14.5321,36.8015   c-6.4978,13.064-14.2906,25.6511-23.2605,37.1653c-17.3773,22.3062-37.7078,41.8887-62.1051,56.3972   c-24.5026,14.5713-53.6656,24.0464-82.4222,20.7258c-30.4138-2.3811-53.0417-21.1689-78.5306-35.6592   c-26.3739-14.9932-55.4048-24.978-85.5477-28.7146c-29.0553-3.6021-54.9856-6.2959-75.5042-29.3965   c-18.2506-20.5471-31.0919-46.7871-41.5453-71.9834c-11.4935-27.7036-19.1472-57.1814-20.4836-87.2239   c-1.2899-28.9973,3.2285-60.2007,18.1315-85.5525c8.657,11.3315,15.1591,23.9221,24.5734,34.8064   c9.5576,11.0503,20.2476,20.8965,32.6785,28.6494c24.3531,15.189,58.9041,24.0049,86.6581,13.0342   c-12.8215-12.9006-13.8927-30.3613-14.567-47.5774c-0.6804-17.3752,3.0892-40.5872-6.2288-56.1516   c-16.5654-27.6702-63.1454-49.4575-44.708-88.4331c6.1973-13.1006,19.8976-26.7429,33.9818-30.9473   c7.5884-2.2654,15.8129-4.3948,23.0646,0.115c8.2283,5.1172,8.8528,17.0591,8.0447,25.6526   c-1.8895,20.093-5.9004,38.7117-1.5873,58.9319c3.5424,15.7905,11.7191,31.3293,25.4401,40.51   c23.317-55.554,52.8226-105.4233,101.9252-142.1304c21.96-16.4163,46.4595-29.3608,72.2485-38.6316   c24.5453-8.8237,55.3892-18.969,81.5215-14.0911c119.0892,22.2295,233.1139,74.6846,323.2255,156.4863   c44.2939,40.2095,81.7019,87.3611,111.415,139.251c15.1304,26.4233,28.0986,54.2222,38.7932,82.7317   c5.1172,13.6416,9.7166,27.4758,13.8435,41.4485c4.5037,15.2483,3.5405,29.7544,4.9292,45.3887   c2.697,30.3638,1.7053,61.1733,3.426,91.6167c1.7424,30.8289,1.9326,61.8569,2.9092,92.7339   c0.9761,30.8645,0.6934,61.9382,2.6189,92.7522c0.4529,7.2485,0.1616,14.5457,0.3931,21.814   c0.1162,3.6531,0.2627,7.3047,0.3958,10.957c0.1765,4.845-1.76,7.2542,3.8691,7.4861c3.6396,0.1499,7.2842,0.1968,10.9263,0.1096   c4.8894-0.1172,7.2542,1.5867,7.2827-4.0103c0.0437-8.5076,0.3191-17.0139,0.219-25.5222   c-1.1443-97.3789-1.5005-194.9023-1.3284-292.2788c0.0867-48.927-4.208-98.5872-12.6719-146.7922   c-1.9421-11.0623-3.6157-22.1538-5.8083-33.1787c-1.2136-6.1033-2.4646-12.199-3.6392-18.3098   c-1.3574-7.0598-0.5842-10.7754,2.2693-17.3723c9.7163-22.4641,17.5669-45.8264,25.5469-68.9482   c7.6392,6.1687,15.3511,16.3914,18.5928,25.7336c1.7292,4.9834,0.6931,11.3337,0.7605,16.5242   c0.0757,5.8342,0.6143,11.6489,0.7078,17.4863c0.1841,11.4907,1.0527,21.4075,4.6404,32.3479   c1.7595,5.3655-0.801,11.7883-1.8049,17.301c-1.3088,7.186-2.5317,14.3875-3.8037,21.5801   c-9.0896,51.397-13.4294,103.7402-13.887,155.8811c-0.9319,106.2468-3.1865,212.8643-0.906,319.1157   c5.428-0.6472,12.1377,0.3779,18.0054,0.2214c5.4155-0.1443,3.8354-2.6155,3.1548-7.2214c0.3994-2.7957,0.8096-5.1021,0.887-7.9822   c0.436-16.2122,0.5403-32.438,1.4727-48.6331c1.7896-31.0857,2.5667-62.8433,2.3904-93.9949   c3.7737-59.4058,4.8174-119.4316,6.4478-178.9707c0.8074-29.4783,14.6626-60.3401,26.0093-87.2666   c11.0032-26.1108,23.7705-51.4841,38.4294-75.7358c29.0364-48.0374,65.1641-91.7351,107.0952-129.0537   c44.3916-39.5088,94.2344-72.2241,147.8779-97.7849c27.2214-12.9709,55.1987-24.5396,83.8408-33.9958   c6.9661-2.3,13.9814-4.4526,21.05-6.4163c5.0366-1.3992,4.238,0.3074,7.0625,4.0432c1.8472,2.4426,3.832,4.7847,5.9858,6.9634   c9.7295,9.8416,23.1941,15.1636,36.793,16.7527c26.635,3.1128,54.5684-7.5867,74.1873-25.4739   c2.3137-2.1096,7.3257-9.5779,11.251-8.0215c6.845,1.7842,13.3196,4.6921,20.0603,6.8003   c13.6511,4.269,27.8257,11.708,40.0396,19.1597c50.0955,28.3252,88.9116,74.6077,113.4919,126.1311   c5.1499,10.7947,9.7671,21.8379,14.0081,33.019c31.9004-20.2998,29.0842-63.2883,24.3708-95.4949   c-2.6084-17.8242,3.2813-36.1753,24.8162-31.3704c17.2185,3.842,34.0493,18.3323,40.8579,34.6965   c15.7993,37.9724-28.9714,58.0112-44.7222,84.897c-9.3638,15.9841-6.7554,36.6182-7.1245,54.4316   c-0.3315,15.9946-0.197,39.7161-15.0781,50.03c10.7825,7.689,31.7771,5.9985,43.99,3.8701   c14.553-2.7085,28.2686-7.2847,41.0056-14.926c26.9072-16.1421,41.5417-40.0391,59.2544-64.7542   c30.6887,49.7847,19.5486,118.1069-0.9297,169.3193c-10.1091,25.2808-22.804,51.1082-40.1763,72.2566   c-19.2961,23.491-43.1436,28.2122-71.9224,31.811c-30.1792,3.7742-58.2368,11.8633-85.2407,25.9385   c-26.1238,13.6165-48.3333,33.5171-78.2671,38.3838c-57.9077,9.415-112.9268-27.9592-147.5686-71.2502   c-19.2114-24.0081-30.7979-50.0957-41.2253-78.719c-5.4509,9.366-1.552,26.8459,0.7983,36.6511   c3.3621,14.0247,9.4146,27.2937,16.6516,39.719c14.5981,25.0215,34.3713,46.9932,55.7749,66.366   c21.1213,19.1172,43.5786,36.5215,70.1052,47.5039c27.4304,9.8296,55.8738,16.8433,85.082,18.7527   c59.1377,3.8662,117.4326-12.4907,165.7173-46.9604c46.0037-32.8413,80.7617-79.8171,103.6345-131.179   c48.5691-109.0645,9.8816-232.1404-63.9121-319.1921c-36.0068-42.4761-83.7498-76.9924-134.6438-99.3496   c-55.6265-24.4358-112.7175-34.3613-173.0479-37.5916c6.217-16.2324,7.5347-33.8162,7.1721-51.0518   c-0.1707-8.1143-0.6965-16.1926-2.0308-24.2073c-1.4167-8.5112-4.6172-17.2766-5.0415-25.8809   c41.1821,25.6753,70.9036,66.7031,113.9209,90.1851c22.0278,12.0244,46.6836,18.762,71.03,24.5454   c10.6931,2.5403,22.1443,4.0046,32.4585,7.8738c10.939,4.1035,13.3555,11.531,19.8706,20.1558   c11.3774-16.0701,16.561-37.5232,11.0037-56.6946c-2.6531-9.1523-6.9614-17.7429-12.0596-25.7649   c-5.0073-7.8789-14.7781-16.0735-17.7881-24.8228c-4.0176-11.6777,14.2339-4.5332,17.7144-0.863   c6.9294,7.3069,11.1326,16.6917,14.4998,26.0552c3.9719,10.8855,5.4602,22.394,9.5,33.3   c3.8577,10.7341,9.1047,20.9417,15.2961,30.511c11.3948,17.6123,26.4458,33.0994,45.2998,42.6707   c20.2715,10.2913,41.1797,9.3115,62.9624,6.1211c23.8994-3.5007,47.656-5.7795,71.8315-4.9727   c21.6211,1.2798,37.9705,8.0757,53.73,22.73c-2.322-56.1189-36.8223-111.8601-86.8225-137.4031   c-12.4443-6.3572-26.2634-10.3586-39.8096-13.6064c-6.8367-1.6389-13.7312-3.0291-20.6531-4.2559   c-5.8582-1.0383-16.5203-0.594-21.4797-3.6897c-4.1033-2.5613-13.1694-1.9504-18.019-2.573   c-6.9507-0.8923-13.8936-1.8633-20.7961-3.0779c-13.9329-2.4517-30.0132-5.0083-41.5715-13.677   c-8.4226-6.3169-15.074-21.5806-5.8228-30.3464c9.8406-9.3242,30.2961,0.3723,40.2432,4.6929   c26.9399,11.7014,50.1323,30.3635,78.5771,38.7813c28.6025,8.4641,58.2927,9.5095,87.1204,1.2786   c6.5801-1.8789,12.6785-4.9048,19.1609-6.9312c5.8174-1.8188,13.5605,4.6995,18.6196,7.3674   c13.9192,7.3401,27.9009,15.1162,41.1233,23.6504c37.1077,23.2163,72.2102,49.2524,105.5999,77.5322   c7.366,6.2388,16.8354,12.7725,22.6768,20.4819c5.9163,7.8083,9.2253,18.9814,12.4424,28.1248   c7.5242,21.3857,9.4233,44.4475,17.511,65.521c14.6145,39.5474,50.1003,63.6648,80.1807,90.811   c15.155,13.6768,29.0369,28.635,40.6416,45.4648c12.4663,18.0791,20.6091,37.4536,29.4077,57.4143   c8.0212-29.136,4.3196-64.8232-0.5452-94.1797c-4.6064-27.7969-13.2251-54.8137-26.6445-79.6443   c-27.4922-50.8696-73.2791-88.2605-121.4104-118.636c-12.4775-7.312-25.283-13.8987-37.9697-20.8127   c-12.2056-6.6516-23.0356-18.7336-33.937-27.4453c-23.6316-18.8855-48.3069-36.4319-73.8857-52.5815   c-52.1104-32.9009-107.7097-60.2041-166.2354-79.687c-112.1074-37.3201-232.2722-47.0435-348.8923-27.478   c-13.334,2.2371-26.6907,4.4958-39.8843,7.4629c-7.1025,1.5972-14.1802,3.3069-21.3054,4.8015   c-3.9561-6.2136-7.8606-12.4707-12.24-18.3999c-7.5037-10.9014-16.9897-21.5718-27.5754-29.563   c-9.8169-7.4106-19.217-14.9055-20.7766-28.0974c-3.4375-29.0791,37.0444-28.8235,55.8083-24.9492   c25.7993,5.3269,42.8264,20.5259,56.0037,42.5396c29.9229-29.8604,29.2537-73.583,5.6299-106.78   c-11.3279-16.2537-27.1011-29.7795-45.2764-37.791c-20.2126-8.9094-40.6887-10.4536-62.3936-11.6689   c39.8596-24.4387,84.6738-43.0833,128.0613-60.212c22.1433-8.7418,44.6479-16.5524,67.3674-23.6569   c23.312-7.2899,47.571-15.8206,71.7813-19.451c-1.9663,5.3922-8.0806,9.8062-11.762,14.0475   c-4.488,5.1705-8.7371,10.5515-12.6694,16.1571c-3.929,5.6003-7.5415,11.4258-10.7463,17.4708   c-1.6038,3.0249-3.105,6.1044-4.4922,9.2346c-4.0313-0.6975-8.124-1.0332-12.2148-1.0184   c-25.8074,0.0934-49.9617,14.3563-63.0239,36.5297c-27.7141,47.0449,2.4785,111.6692,58.3088,115.4602   c12.4485,0.8452,25.1008-1.5901,36.3081-7.0889c5.6416-2.7681,10.9153-6.2739,15.6912-10.3555   c2.3896-2.0422,4.6555-4.229,6.7825-6.5435c3.3831-3.6809,6.0967-0.4392,10.3145,1.3604   c27.5393,11.749,57.4104,12.3872,86.1687,5.0449c29.5552-7.5461,51.0137-25.8015,76.2271-41.5232   c23.2864-14.52,52.5537-26.7092,80.438-20.1831c46.3186,10.8403,55.1858,75.8364,14.9368,100.1899   c-17.6138,10.6575-45.2783,11.4189-58.4067-7.0425c-18.2078-20.9043,5.4121-41.166,19.74-54.48   c-23.6106,1.0845-44.9209,22.0159-44.0737,45.7131c0.8784,24.5715,24.0911,40.3635,45.8716,46.0227   c25.6394,6.6621,53.7817,1.1521,72.9138-17.7368c18.5322-18.2971,29.2983-45.5454,31.8523-71.146   c5.4548-54.6794-22.1531-103.1727-64.0359-136.6547c-19.7002-15.7487-42.1064-28.3215-65.6382-37.3485   c-13.1599-5.408-26.897-9.3073-40.8005-12.2651c-13.4058-2.8521-27.0725-3.5612-40.4495-6.2048   c62.4717-9.3362,126.9011-9.3105,189.9177-8.9756c15.0325,0.0798,30.1843-0.2283,45.198,0.5425   c4.2693,0.2192,6.8081-0.8727,8.4543,3.3531c0.3569,2.7053,0.9358,5.228,1.6299,7.8727c2.1223,8.085,4.2451,16.1726,6.6777,24.171   c8.3267,27.3789,20.5728,53.3623,35.6406,77.6395c62.6985,101.0205,179.2495,163.9834,298.6538,150.2908   c29.1702-3.345,57.9507-10.6875,85.3083-21.3577c13.405-5.228,26.3567-11.5632,38.9377-18.531   c10.7231-5.939,22.7119-12.6899,30.562-22.3254c-23.7808,16.6035-48.7407,29.5327-77.6506,34.3682   c-28.9412,4.8406-59.0491,2.5005-86.8921-6.6956c-24.6638-8.146-49.2993-22.9104-64.0974-44.7524   c-15.2051-22.5964-19.9548-50.9766-44.2151-66.9579c-47.2813-31.1465-119.1924-6.6573-159.4099-52.6522   c-5.5864-6.389-14.3337-22.4099-0.1226-24.8456c12.7739-2.1893,24.5632,6.188,36.3254,9.4967   c27.9443,7.8608,54.5107-8.4677,72.9958-28.0809c4.3613-4.6274,8.0681-9.7877,12.3262-14.5001   c6.5981-0.2278,13.2141,0.0909,19.814,0.175c16.5906,0.2113,33.1833,0.1901,49.7749,0.0736   c29.8674-0.2097,59.5483-1.8461,89.3062-4.1615c60.9729-4.7443,121.22-15.9873,179.542-34.4446   c115.1274-36.4343,218.2979-105.1825,303.6177-189.9117c15.9995-15.8889,31.7031-32.028,46.874-48.7186   c3.8101-4.1915,7.4946-8.4957,11.3203-12.6719c3.5942-3.9232,11.2119-0.4143,16.5908-1.0304   C4537.8618,1638.6849,4546.8042,1629.8385,4552.6001,1622.53C4563.2798,1609.11,4548.96,1627.12,4552.6001,1622.53z M1230.8,1804.7   c-5.4403,13.144-18.5724,17.2648-31.1526,20.587c-14.952,3.9486-30.2828,6.2517-45.1737,10.463   c-26.6222,7.5292-49.0782,22.2081-62.2894,47.0615c-3.2755,6.162-5.8495,12.6736-8.0057,19.3033   c-1.0803,3.3212-2.0571,6.6753-2.969,10.0464c-1.2363,4.5707-1.825,3.4652-6.1067,3.7665   c-15.745,1.1078-31.7465,0.5221-47.5197,0.3463c-29.8118-0.3323-59.6976-0.9465-89.406-3.2871   c-60.6053-4.7748-119.9486-14.6743-178.296-31.9044c-28.7944-8.5031-56.8762-19.5308-84.1662-32.0089   c-6.7819-3.101-13.5111-6.3184-20.1645-9.6866c-6.1448-3.1107-2.7301-13.9027-1.834-20.1016   c2.2967-15.8873,5.389-31.442,9.7672-46.8901c15.8329-55.8655,47.2141-107.2271,90.1592-146.3666   c20.2836-18.4862,43.0643-34.2284,67.5284-46.665c12.8582-6.5367,26.2801-11.9879,39.8866-16.7378   c14.8999-5.2013,29.813-6.3756,45.5106-7.0857c52.96-2.3955,122.5195,6.9301,153.8254,55.9707   c30.4034,47.6271-20.0786,112.8661-74.1497,95.8805c-2.0654-0.7738-4.1602-1.4576-6.2844-2.0514   c7.0657,6.5247,18.7571,10.3706,27.7232,13.3242c11.1533,3.6741,22.3429,6.0363,34.1277,6.1185   c22.192,0.1548,42.2484-9.7129,55.7532-27.2953c13.2843-17.2953,18.787-38.8409,13.6941-60.2029   c-2.5498-10.6951-7.3839-20.6853-13.3619-29.8695c-2.9373-4.5126-6.1238-8.8966-9.6301-12.9851   c-3.5043-4.0862-10.1539-8.5493-12.0061-13.6799c44.6445,18.4755,87.2848,51.854,116.1042,90.5439   c14.7413,19.79,26.8068,42.5986,34.6537,66.0072C1233.9702,1758.0404,1240.0759,1783.7401,1230.8,1804.7   C1227.7,1812.1899,1237.3101,1789.99,1230.8,1804.7z M2041.65,2169.6699c-14.7083,42.6848-76.2612,40.2012-104.0481,12.7876   c-30.2662-29.8596-35.1957-81.5513-19.4319-119.6174c17.7234,6.4517,34.783,19.5125,50.7195,29.4536   c17.3876,10.8462,34.8325,21.8232,51.2605,34.0962c-8.8639,2.6311-18.3571,9.7681-17.3879,20.1184   c0.4196,4.4824,2.9482,8.9019,7.0706,10.9324c5.1217,2.5229,10.8643-2.5862,6.4163-7.2996   c-4.58-4.8528-4.3052-8.3391,1.7611-12.1611c5.0258-2.8618,10.9119-0.1946,15,3.05   C2041.472,2147.594,2044.9572,2159.5295,2041.65,2169.6699C2038.28,2179.45,2044.97,2159.49,2041.65,2169.6699z M2008.4,2100.9099   c-21.4648-14.5259-43.5083-28.187-65.9475-41.1536c-5.0931-2.9429-10.2803-5.7405-15.3157-8.7813   c-4.4187-2.6685-2.0208-3.8475,0.0149-7.8308c1.5198-2.9738,3.1389-5.8962,4.8413-8.7693c2.84-4.7932,5.9104-9.4478,9.1429-13.9846   c1.9387-2.7209,3.936-5.3999,5.9794-8.0431c2.6472-3.4247,2.7344-5.2555,6.3263-2.0624   c18.8221,16.7317,39.7942,31.1432,56.6577,50.002c17.0516,19.0693,21.6635,42.5437,33.0507,64.7131   C2031.5648,2116.9731,2020.2452,2108.5569,2008.4,2100.9099C1984.89,2085,2020.25,2108.5601,2008.4,2100.9099z    M2509.1499,2179.1899c38.0977-58.1411,86.5623-107.2278,131.5601-159.8199c20.6619-24.932,40.0566-50.7747,49.3701-82.25   c8.647-30.5607,5.8633-68.0205-18.02-91.36c8.075,23.201,2.9836,50.7009-24.25,57.61c-12.6328,0.1395-19.0325-6.239-19.72-18.9026   c-0.7451-13.7252,6.4934-25.3983,15.7205-35.0034c19.7842-20.5946,47.8789-33.3254,74.0417-43.6194   c28.9419-11.3875,59.3352-19.9557,89.8308-26.0331c60.5891-12.0745,123.2456-6.6804,184.3965-2.824   c5.5713,0.3514,4.1033,2.4789,4.3115,7.4541c0.1511,3.6136,0.1101,7.2351-0.1157,10.8447   c-0.4519,7.2222-1.6431,14.3961-3.5168,21.3849c-1.2568,4.6876-0.4722,6.828-5.6956,7.0685   c-3.5967,0.1656-7.1914,0.3785-10.7825,0.6389c-8.3818,0.6074-16.7449,1.4728-25.0732,2.5956   c-29.7407,4.0098-59.0505,11.3053-87.1379,21.8865c-51.0952,19.2488-98.0352,48.4834-137.6643,86.0607   c-19.3091,18.3092-36.8389,38.4996-52.1941,60.2334c-2.6384,3.7343-19.8254,23.6302-11.5686,27.2401   c7.6025,3.324,19.6311-21.6421,23.6213-27.0819c66.5459-90.7229,173.0012-151.9073,285.5383-160.527   c4.8096-0.3684,9.627-0.6349,14.448-0.796c-10.8987,24.576-32.1802,42.7086-55.5645,55.0142   c-24.5657,12.9274-48.2947,24.9536-69.219,43.6104c-9.5164,8.4849-18.2786,17.8365-25.9314,28.0406   c-3.8259,5.1013-7.3723,10.4136-10.5901,15.9193c-3.6216,6.1969-5.3169,5.7275-12.5315,6.3223   c-29.9319,2.4675-59.3677,10.8713-86.7378,23.0887c-50.5193,22.5508-94.468,57.7789-130.1846,99.8082   c-17.9482,21.1208-33.7344,43.9651-47.6489,67.9248c-7.0339,12.1118-13.561,24.52-19.5044,37.2034   c-2.9714,6.3413-5.7969,12.751-8.4661,19.2251c-2.8208,6.8418-4.5972,14.7991-8.8118,20.9431   c-5.0723-8.1467-2.3684-23.6084-2.4331-33.0493c-0.0439-6.4348-0.0188-12.8735-0.3472-19.3022   C2507.9883,2193.0288,2505.4626,2184.2783,2509.1499,2179.1899C2514.7,2170.72,2506.6499,2182.6399,2509.1499,2179.1899z    M2723.3501,2237.4099c-24.4661,25.2976-47.8186,51.7139-69.2231,79.6636c-9.9954,13.0518-22.7715,22.7334-34.3184,34.3579   c-12.3328,12.4163-23.7317,25.7454-34.2886,39.6985c0.7483-27.5508-4.2336-55.5361-16.2993-80.4312   c-3.1392-6.4773-5.2717-9.4009-0.8525-15.7651c3.9341-5.6655,7.4829-11.5999,11.4175-17.2717   c8.8975-12.8269,18.5432-25.1257,29.064-36.6624c18.8894-20.7139,41.1655-39.4255,70.1309-42.1907   c12.8408-1.2261,26.7954,0.8213,37.4121,8.6038c5.0747,3.72,9.0703,8.1516,11.8267,13.8081   C2732.2837,2229.562,2728.7815,2231.4514,2723.3501,2237.4099C2698.04,2263.5801,2725.72,2234.8101,2723.3501,2237.4099z    M2726.8601,2254.6599c-6.7888,17.6631-23.8315,34.675-39.76,44.4001c5.259-7.7368,12.043-14.8003,18.3113-21.7263   C2711.9695,2270.0879,2718.6536,2260.042,2726.8601,2254.6599C2723.3701,2263.74,2725.03,2255.8601,2726.8601,2254.6599z    M2479.26,2232.1699c1.5635-3.3157,2.8691-6.8691,5.4399-9.5798c-0.0701,6.7373,0.54,13.4622,0.4102,20.2   c-3.4199-0.0598-6.8401-0.0999-10.26-0.1602C2475.6282,2238.8784,2477.707,2235.6167,2479.26,2232.1699   C2480.8301,2228.8401,2477.71,2235.6101,2479.26,2232.1699z M2182.78,1882.8c22.7385-20.3832,58.0469-11.3214,82.95-0.53   c27.5286,12.929,50.5244,33.3895,69.9912,56.475c19.9917,23.7078,36.4001,50.4574,49.9116,78.3252   c13.9343,28.7397,26.468,59.9613,30.7273,91.7999c-4.5295-3.1863-7.4563-9.2366-10.8894-13.5068   c-5.3616-6.6689-10.8811-13.2131-16.6189-19.562c-10.9441-12.1099-22.5627-23.6013-34.9392-34.2471   c-24.0498-20.6869-50.7681-38.3196-79.9705-50.8536c-27.2637-11.702-57.3833-15.0139-80.5547-35.0894   C2173.1389,1938.0681,2159.6367,1904.0391,2182.78,1882.8C2190.3101,1876.05,2175,1889.9399,2182.78,1882.8z M2201.3101,2268.0601   c-19.6499-22.457-40.6865-43.7942-62.5483-64.0979c-10.9968-10.2131-22.343-20.0959-33.7092-29.896   c-10.3713-8.9421-24.7188-16.8655-30.3462-29.7031c-5.3867-12.2888-8.1326-25.8525-7.2419-39.2778   c0.9729-14.6646,7.2659-26.0076,13.5129-38.8872c12.8206-26.4319,6.4573-54.9015-4.5474-80.558   c84.4556-15.2562,173.8994,2.4001,244.0325,52.0466c67.3015,47.642,113.491,131.7582,126.8176,212.4235   c-16.2437-7.9033-31.2407-8.8999-48.76-4.4001c-7.7769,1.7092-14.8945,5.4023-22,8.8601   c-3.9973,1.9426-7.3564,4.8904-11.0222,7.3513c-4.0437,2.7146-6.0671,1.2168-10.3479,0.0186   c-15.4434-5.8435-32.363-8.5715-48.7351-10.1987c-8.3398-0.8286-8.8018,6.0332-9.9666,13.2864   c-1.459,9.0833-0.8828,18.3484,0.0518,27.4524c-16.5725-7.7703-35.6108-6.8865-52.9578-2.4155   c-6.9102,1.781-16.4717,7.8159-21.9709,1.4478C2214.8196,2283.6934,2208.2808,2275.688,2201.3101,2268.0601   C2192.28,2257.74,2209.05,2276.53,2201.3101,2268.0601z M2430.2,2276.99c-2.6687,9.7358-4.6401,19.7251-4.9399,29.8401   c-6.7305-6.5408-13.1055-13.5239-20.7-19.1001C2410.0073,2280.979,2421.9941,2277.6738,2430.2,2276.99   C2427.53,2286.73,2424.4399,2277.47,2430.2,2276.99z M2314.78,2425.29c-5.8716-7.7805-10.2913-16.8435-15.2986-25.1943   c-5.1191-8.5376-10.947-16.6458-15.6614-25.4258c9.6392,3.908,18.1509,9.9939,26.76,15.72   C2312.2285,2401.8379,2313.6428,2413.7712,2314.78,2425.29C2309.52,2418.3201,2314.24,2419.8201,2314.78,2425.29z    M2186.02,2495.4099c-33.9456-0.1313-48.8347-44.0198-42.98-71.5898c16.615,11.646,31.8323,25.7612,46.7449,39.4792   c7.2202,6.6418,14.3188,13.4263,21.0251,20.5906C2204.6394,2490.989,2195.3801,2495.1201,2186.02,2495.4099   C2175.74,2495.3701,2195.3799,2495.1201,2186.02,2495.4099z M2201.77,2454.8701c8.1099-2.6902,14.6099,7,14.54,14.1899   C2211.3899,2464.3999,2206.51,2459.6899,2201.77,2454.8701z M2419.27,2785.02c1.0015,8.082,2.53,16.1375,2.51,24.3101   c-19.2366-57.2417-42.6943-112.7922-72.6101-165.3201c-29.5322-53.6768-66.8411-101.8813-106.7998-148.0701   c-5.208-4.2427-9.6763-9.9763-14.2495-14.9084c-4.2109-4.5415-1.2512-11.6355-2.645-17.7856   c-2.5583-11.2866-13.9167-22.2131-26.1294-18.1008c-2.6106,0.8792-4.2517,2.6855-6.9463,1.7649   c-2.3123-2.4351-4.7488-4.7493-7.25-6.9885c-5.0034-4.4795-10.2622-8.6594-15.3848-12.999   c-5.4595-4.6245-11.0564-9.0173-16.6643-13.458c-3.4197-2.708-6.2822-3.0906-4.3362-7.5396   c1.6963-3.8779,3.6384-7.6482,5.8052-11.2842c13.6138-22.8455,35.8738-39.9619,62.1904-45.062   c7.0461-1.3655,11.4578-1.6792,17.7197,1.9714c5.5369,3.4915,11.5315,6.1553,17.4756,8.8606   c12.0139,5.4683,18.6685,20.4316,25.5901,31.2588C2352.7971,2509.3801,2402.1741,2646.2524,2419.27,2785.02   C2420.27,2793.0901,2417.9099,2773.98,2419.27,2785.02z M2430.74,2434.23c-11.4043-9.7612-22.3845-20.1409-31.6895-31.96   c-4.0154-5.0999-7.697-10.4463-10.8708-16.1111c-1.7524-3.1279-4.1794-4.5291-0.6389-6.8359   c3.2615-2.1252,6.5969-2.9866,10.4863-2.9438c31.197,0.3418,43.5447,44.8003,46.583,69.0107   C2439.4851,2442.3291,2435.2883,2438.0369,2430.74,2434.23C2416.72,2422.23,2435.28,2438.03,2430.74,2434.23z M2459.46,2384.26   c-0.0303,2.8667-0.01,5.7334,0,8.6001c-4.2664-19.418-6.7883-38.0259-15.4763-56.2515   c-4.3086-9.0381-9.7473-16.9937-15.5103-25.1238c-4.8655-6.8635,0.9382-17.8118,5.8245-23.4138   c2.4863-2.8506,16.1221-14.7441,18.6421-5.981c2.7847,9.9099,3.0176,21.2375,3.9551,31.4558   C2459.0515,2337.0481,2459.6658,2360.668,2459.46,2384.26C2459.4299,2387.1101,2459.72,2354.46,2459.46,2384.26z M2470.78,2429.77   c-3.5068,3.0771-7.3555,5.8245-10.3201,9.47c1.4546-47.2136,6.2651-94.2229,7.1602-141.54   c1.5139,3.6997,2.2837,7.6418,2.98,11.5601c0.968-10.7383-2.4392-21.1665-3.25-31.79c5.23,0.0981,10.6277,1.6558,15.2266,4.2532   c4.991,2.8191,2.8425,12.7864,2.5459,17.7539c-0.8757,14.6638-0.8728,29.3713-1.8301,44.0435   c-0.979,15.0056-2.2749,29.988-3.5625,44.9695C2478.3735,2400.6653,2480.4058,2421.1575,2470.78,2429.77   C2467.27,2432.8501,2472.8701,2427.8999,2470.78,2429.77z M2486.4299,2727.45c11.616-59.2776,28.0918-117.637,50.0176-173.9421   c10.8821-27.9446,23.092-55.3748,36.6592-82.1201c13.6497-26.908,26.8262-55.5251,48.8643-76.5486   c43.7676-41.7527,91.4841-76.802,148.9678-97.0708c54.5391-19.231,119.6008-28.5703,174.4971-5.3069   c3.1387,1.3301,6.2168,2.8054,9.2041,4.4485c-27.7119,12.6079-56.5188,22.2344-83.8628,35.8738   c-25.7966,12.8674-50.8716,27.0601-75.0264,42.8049c-47.8843,31.2122-91.8201,68.0728-131.2793,109.4053   c-82.2537,86.1587-143.4207,191.2368-182.7727,303.3865c-2.8633,8.1602-5.6111,16.3606-8.2388,24.5996   C2476.5105,2784.2952,2481.0085,2755.7778,2486.4299,2727.45C2488.3601,2717.6001,2481.01,2755.77,2486.4299,2727.45z    M3001.26,2464.3c-20.9858,13.5684-52.3804,10.8721-69.6399-7.74c11.4463-6.0225,28.0957-6.8625,40.73-9.2   c15.5479-2.5212,29.6904-1.7295,44.96,2.3699C3012.7085,2455.332,3007.3206,2460.3098,3001.26,2464.3   C2985.3601,2474.5801,3007.3201,2460.3101,3001.26,2464.3z M2978.5601,2310.28c31.554,22.2468,60.9448,55.7573,56.8044,97.0071   c-0.7495,7.4666-0.7271,18.7261-9.6079,19.332c-10.5359,0.7192-21.0859,1.4827-31.5266,3.1208   c-23.616,2.2805-46.8245,7.4585-69.8501,13.02c-4.1125-16.3445,9.031-33.1543,22.1663-41.3164   c16.9966-10.5615,33.1785-7.1052,51.6838-5.0537c-17.9343-17.8967-46.2314-15.718-66.394-2.8381   c-9.9685,6.3679-18.6326,15.4253-23.0459,26.5227c-2.3496,5.9082-3.5115,12.3301-3.0103,18.6877   c0.231,2.927,0.7073,5.8721,1.0603,8.7878c-4.6448,1.3767-9.2754,2.8013-13.8906,4.2739   c-57.2881,18.2788-112.3298,43.7947-163.2832,75.7197c-95.8064,60.0273-173.3572,146.6924-221.3806,249.1096   c-9.2251,19.6743-17.376,39.8518-24.4141,60.4102c-3.3335,9.7373-6.4175,19.5603-9.2478,29.4558   c-3.2227,11.2681-3.2163,21.1436-4.1338,32.7207c-2.4031-29.4883,9.1985-59.6694,18.1899-87.5398   c9.4348-29.2451,20.5017-57.9607,33.05-86.0103c23.7327-53.3442,52.7354-104.3914,86.9956-151.6875   c68.521-94.5928,158.0608-172.2351,262.2566-225.2148c17.1787-8.7346,34.7334-16.8823,52.5515-24.228   c9.28-3.8257,18.6519-7.426,28.0806-10.8674C2961.1206,2310.2224,2969.4243,2304.5994,2978.5601,2310.28   C2994.8,2321.73,2975.8101,2308.5701,2978.5601,2310.28z M3213.54,1949.64c-78.8401,21.7921-154.9268,52.9668-226.927,91.7307   c-14.4658,7.7882-30.4482,21.3976-47.4255,21.4193c-24.1572,0.031-2.7166-26.2072,4.6292-34.2598   c12.8401-14.0757,27.5405-25.9277,38.3772-41.8036c9.7097-14.2246,20.8848-35.0739,18.7861-52.9166   c-2.7295,3.9492-5.4365,7.9861-9.01,11.24c5.9077-18.6696,16.1904-41.2747,9.79-61.2201   c-10.5608,22.9554-23.4658,45.0031-40.3242,63.9275c-7.7495,8.6996-16.3418,16.74-26.1333,23.1069   c-4.6621,3.0315-28.3599,12.9863-32.0037,5.7631c-4.772-9.4596,9.1531-22.5178,15.1025-28.1669   c9.0112-8.5563,19.3359-15.4006,28.8228-23.3729c19.7351-16.5846,34.8911-37.5377,43.552-61.8859   c1.7473-4.9116,5.2788-29.9382,10.2258-29.7992c12.7234,0.3577,25.4048,0.7058,38.0867,1.915   c27.1902,2.5925,54.626,8.4968,80.3787,17.6586c48.6243,17.2983,96.3442,43.9021,124.9426,88.2738   C3234.2559,1944.5314,3223.8042,1946.7488,3213.54,1949.64C3148.1299,1967.72,3223.8,1946.75,3213.54,1949.64z M4201.4199,1857.65   c-58.0503,23.2201-117.2188,39.2618-179.0786,48.4856c-62.0457,9.2515-125.0549,10.2836-187.6594,10.174   c-5.9041-0.0104-13.5156,1.5223-18.8918-1.3296c-1.5608-6.1115-3.3311-12.1267-5.478-18.0599   c-4.448-12.2922-11.0762-23.88-19.9207-33.5439c-18.8511-20.5979-45.8584-27.5801-72.1965-33.1968   c-12.5767-2.682-26.1211-4.754-37.8545-10.2845c-12.5559-5.9181-17.3467-18.4507-19.2502-31.3948   c1.0034-30.3732,8.4443-57.4893,22.5652-84.5292c28.9478-55.4323,80.1887-98.7793,137.1147-123.8308   c-2.0439,4.4509-6.801,7.6508-9.9907,11.2583c-3.5955,4.0663-6.9902,8.3137-10.0986,12.7646   c-6.2263,8.9158-11.3943,18.7448-14.5469,29.1783c-6.8574,22.6941-1.3103,44.864,12.2639,63.7688   c11.9646,16.663,31.9407,27.2367,52.3552,27.5492c11.676,0.1787,22.7119-1.3701,33.9009-4.7568   c9.2627-2.8036,24.1748-6.6912,30.7261-14.3524c-27.6123,8.1816-55.1887,1.4851-74.1199-21.17   c-17.1694-22.2516-20.3489-50.7928-4.1438-74.639c32.259-47.47,98.967-56.0023,151.5337-54.251   c58.0801-0.9784,115.1519,35.2764,156.624,72.9696c42.2642,38.4133,71.6436,89.9165,87.7407,144.3445   c5.1421,17.387,8.4014,35.5042,10.459,53.5066c0.6001,5.2527,2.9111,9.9719-2.1572,12.7095   c-4.3042,2.3252-8.6826,4.512-13.1006,6.6124C4219.3735,1849.8362,4210.374,1853.6938,4201.4199,1857.65   C4182.77,1865.11,4215.9502,1851.23,4201.4199,1857.65z"/>
	<path d="M267.95,1623.92c-23.6613-22.8705-40.8994-50.6493-53.6116-80.8621c-1.7912-4.2571-1.0249-7.0607-6.1535-6.2823   c-4.4579,0.6766-8.8809,1.5786-13.2517,2.6853c-7.6496,1.9368-15.1362,4.499-22.4025,7.5719   c-14.2314,6.0183-28.7121,13.8035-40.2906,24.1571c37.9165,12.639,63.1975,48.0547,96.0049,69.3821   c32.4752,21.1115,77.1624,37.4335,113.7651,16.228c-14.2906-2.4303-27.023-2.6163-40.483-9.0638   C289.0893,1641.7783,277.973,1633.3259,267.95,1623.92C253.29,1609.75,284.03,1639.01,267.95,1623.92z"/>
	<path d="M4706.54,1546c-8.5913-3.5251-17.5093-6.2758-26.6265-8.0569c-5.1108-0.9985-9.5024-3.5537-11.7173,1.8054   c-1.8657,4.5153-3.77,9.0155-5.7773,13.47c-8.019,17.7937-18.1563,34.7209-30.2954,50.0165   c-22.1104,27.8595-55.0327,55.9353-93.0034,53.045c13.8516,11.6454,39.6719,11.6185,56.3672,8.5872   c20.438-3.7107,39.1641-12.6448,56.5078-23.8402c33.9189-21.8953,59.1045-54.3693,96.9849-69.927   c-7.0181-5.8639-14.6694-10.9435-22.6675-15.3677C4720.0327,1552.2583,4712.3877,1550.054,4706.54,1546z"/>
	<path d="M1924.72,1625.6801c57.9471-45.3744,141.624-49.318,209.49-26.04c-16.6802-15.2473-40.2136-25.2867-61.0056-33.4382   c-23.8135-9.3359-48.6188-16.2405-73.8318-20.5496c-47.4724-8.1134-98.1377-6.811-142.1604,14.3492   c-40.7345,19.5796-75.713,52.6842-95.7366,93.3627c-10.5195,21.371-14.2095,44.6239-21.8864,66.9878   c-8.0864,23.5565-18.8142,44.5227-36.8693,61.9381c22.5615-0.8221,45.0758-8.5382,62.7145-22.7719   c18.4496-14.8881,24.0586-35.9595,37.1367-54.6016c14.0726-20.0597,38.0477-27.6324,58.9187-38.4596   C1883.819,1654.8735,1904.7252,1640.9076,1924.72,1625.6801C1948.64,1606.95,1905.72,1640.15,1924.72,1625.6801z"/>
	<path d="M4595.3799,1629.03c33.6206-29.0559,57.8457-64.7404,71.21-107.42c6.729-22.8398,10.9043-47.7828,6.0469-71.4307   c-3.7534-18.2736-14.5098-44.0421-35.5967-47.2394c-21.1836-3.6801-43.0288,11.2734-58.9722,23.4209   c-18.7451,14.2819-36.2285,30.5874-52.5752,47.542c-30.0908,31.2097-56.3223,76.6847-42.3726,121.3372   c5.0225-11.301,7.5605-21.7618,15.6099-31.71c8.7847-10.7778,19.7617-19.5397,31.4351-26.998   c11.895-7.6003,24.5015-14.2556,37.4238-19.9231c13.3716-5.8649,27.8604-12.8036,42.231-15.6989   c-6.333,28.4945-14.9453,56.5399-26.6099,83.3199c-11.2324,24.1702-23.6436,50.543-49.29,62.11   c7.8354,5.1494,21.7319,1.7727,29.9536-0.6321C4575.355,1642.3499,4585.9946,1636.3898,4595.3799,1629.03   C4596.1899,1628.33,4580.9702,1640.33,4595.3799,1629.03z"/>
	<path d="M1880.09,1710.9c97.7532,22.4646,188.432-55.8973,285.7223-29.2153c45.6321,12.5146,84.7983,41.6047,117.4778,75.0553   c17.2583,17.1038,33.0593,35.611,48.1963,54.5984c7.688,9.6432,15.0908,19.5447,22.3367,29.5244   c6.9641,9.5918,12.9912,21.2114,21.397,29.6172c-2.9507-13.7949-10.0212-27.5431-15.3599-40.5574   c-5.9878-14.5963-12.532-28.9829-19.1641-43.2961c-13.2446-28.5836-27.9561-56.2839-42.606-84.1565   c-32.1069-51.6165-63.0728-102.7406-103.3235-148.6787c-37.7026-43.0295-82.1558-85.2445-136.334-106.061   c-58.5789-22.5073-122.528-15.0846-181.0706,3.4208c-29.1094,9.2015-57.3009,21.0144-85.296,33.1254   c-13.4828,5.8329-27.1255,11.6309-41.0743,16.2606c-13.3617,4.4349-28.7924,8.9835-42.5717,3.703   c3.0842,20.3606,28.2549,27.7115,45.4618,29.7439c23.7889,2.8099,48.582,0.2317,71.9882-4.3739   c49.0939-8.9392,96.9468-15.1313,146.9418-11.5989c48.1678,3.4033,96.6931,17.8856,138.302,42.4868   c20.5164,12.1304,39.5215,26.3821,57.0083,42.5751c16.4014,15.188,33.6736,32.4204,45.468,51.557   c-13.8027-7.9484-26.2327-17.9963-40.3232-25.6375c-15.4561-8.3817-31.8147-15.1852-48.5603-20.5247   c-33.0867-10.55-68.1589-13.0278-102.377-7.416c-33.6846,5.5242-66.0985,18.4463-93.7332,38.5184   c-13.7196,9.9651-25.8522,21.7858-39.2562,32.1274c-14.7449,11.3762-28.9156,15.8379-46.9302,19.2522   C1851.8348,1702.2078,1866.2485,1707.4772,1880.09,1710.9C1888.14,1712.75,1866.26,1707.48,1880.09,1710.9z"/>
</g>
</svg>