<svg id="d65a59bb-7345-4f43-9002-a691e0242698" data-name="Calque 1" xmlns="http://www.w3.org/2000/svg" viewBox="0 0 244.1 96.7"><title>logo</title><path d="M154,24.4c-2.7,2.5-6.8,4.4-12.2,5.7a11.6,11.6,0,0,1,4.2,5.2,18.6,18.6,0,0,1,1.6,7.9,16.9,16.9,0,0,1-4,11.2,25.7,25.7,0,0,1-11.2,7.3A46.7,46.7,0,0,1,116,64.3a57.6,57.6,0,0,1-18.2-2.5c-5.1-1.7-8.9-4.1-11.5-7.3a16.8,16.8,0,0,1-4-11.3,15.7,15.7,0,0,1,3.2-9.9,22.4,22.4,0,0,1,7.4-6.1,30.7,30.7,0,0,1,7.7-2.9,26.3,26.3,0,0,1-7.5-4.1,8.2,8.2,0,0,1-2.8-6.5,8,8,0,0,1,2.8-6.4,17.8,17.8,0,0,1,7.1-3.7,31.9,31.9,0,0,1,8.7-1.1,34.9,34.9,0,0,1,5.1.3,22.1,22.1,0,0,1,3.7.8,11.4,11.4,0,0,1,4.6,2.8,6.6,6.6,0,0,1,1.9,4.8,5.8,5.8,0,0,1-2.3,4.7,9.3,9.3,0,0,1-10.7.2,5.1,5.1,0,0,1-2.1-4.4,7,7,0,0,1,1.7-4.4,7.9,7.9,0,0,1,4.4-2.6,14,14,0,0,0-5-.7,11,11,0,0,0-8,3c-2.1,2-3.2,4.9-3.2,8.8a13.1,13.1,0,0,0,2.7,8,17.9,17.9,0,0,1,4.4-.8,2.9,2.9,0,0,1,2.2.7,2.2,2.2,0,0,1,.8,1.8,1.7,1.7,0,0,1-.7,1.3,2.5,2.5,0,0,1-1.7.5c-1.4,0-3.1-.8-4.9-2.3a18.5,18.5,0,0,0-5.7,5.8,14.5,14.5,0,0,0-2,7.7c0,5.4,2.2,9.2,6.6,11.7s10.9,3.6,19.5,3.6a39.6,39.6,0,0,0,11.3-1.6,24.3,24.3,0,0,0,9.2-4.8,10.2,10.2,0,0,0,3.6-7.8,15.9,15.9,0,0,0-.7-5,7.5,7.5,0,0,0-3.1-4.1l-5.7,1-6.1,1q-9.6,1.7-13.8,3.6c-2.8,1.2-4.1,2.9-4.1,5.1a5.8,5.8,0,0,0,3,5,13,13,0,0,0,7.1,1.9h2.3a6.3,6.3,0,0,1-4.5-6.4,5.5,5.5,0,0,1,2.2-4.7,10.4,10.4,0,0,1,6-1.7,8.6,8.6,0,0,1,5.8,1.8,5.7,5.7,0,0,1,2.1,4.8,6.5,6.5,0,0,1-3.5,6c-2.4,1.3-5.7,1.9-9.8,1.9s-7.6-1-10.2-3a10.1,10.1,0,0,1-3.9-8.5,13.5,13.5,0,0,1,6.2-11.9c4-2.8,9.9-4.7,17.6-5.8l3.5-.6,3.9-.6A54.1,54.1,0,0,0,151,16.1c2.6-1.2,4-3,4-5.4a6,6,0,0,0-2.9-5.1,10.7,10.7,0,0,0-6.5-2h-2.3a8.8,8.8,0,0,1,3.9,2.7,6,6,0,0,1,1.3,3.7,5.5,5.5,0,0,1-2.2,4.7,10,10,0,0,1-5.8,1.6,8.9,8.9,0,0,1-5.9-1.8,5.8,5.8,0,0,1-2.2-4.8A7.2,7.2,0,0,1,135.2,4q2.9-2.1,8.7-2.1c4.3,0,7.8,1.1,10.4,3.2a11.5,11.5,0,0,1,3.8,9.1A13.2,13.2,0,0,1,154,24.4Z" transform="translate(-3 -1.9)" style="fill:#efeeee"/><path d="M12.2,25.8H26.3l.3,5.7h-.5a7.8,7.8,0,0,0-2.3-4,6.2,6.2,0,0,0-3.9-1.1h-.8v8.9h1.2a3,3,0,0,0,2.2-1,4.9,4.9,0,0,0,1.2-2.6h.4v8h-.4a7.2,7.2,0,0,0-1.2-2.9,3.3,3.3,0,0,0-2.2-.8H19.1v8.2h3.4v.6H12.2v-.6h1.6V26.4H12.2Z" transform="translate(-3 -1.9)" style="fill:#010101"/><path d="M28.3,25.8h9.8v.6H35.2V44.2h1a4.5,4.5,0,0,0,3.6-1.4,13.9,13.9,0,0,0,2.8-4.3h.6l-.5,6.3H28.3v-.6h1.6V26.4H28.3Z" transform="translate(-3 -1.9)" style="fill:#010101"/><path d="M44.5,25.8H58.6l.3,5.4h-.5A9.8,9.8,0,0,0,56,27.5a5.8,5.8,0,0,0-3.7-1.1h-.9v8.4h.9a2.7,2.7,0,0,0,2.1-.9,6.4,6.4,0,0,0,1.3-2.6h.4v8h-.5a7.1,7.1,0,0,0-1.3-2.9,3,3,0,0,0-2.3-.9h-.6v8.7h1a5.9,5.9,0,0,0,4.2-1.4A7.2,7.2,0,0,0,59,38.9h.6l-.2,5.9H44.5v-.6h1.6V26.4H44.5Z" transform="translate(-3 -1.9)" style="fill:#010101"/><path d="M68.5,42.9a3.4,3.4,0,0,0,3.1,1.3A4,4,0,0,0,75,42.8a6.2,6.2,0,0,0,1.2-4.2V26.4H74.4v-.6h4v.6H76.9v12q0,3.5-1.5,5.1c-1,1.1-2.7,1.6-5.3,1.6s-4.4-.5-5.7-1.6-2-2.8-2-5.4V26.4H60.9v-.6h8.5v.6H67.6V39.1A6.9,6.9,0,0,0,68.5,42.9Z" transform="translate(-3 -1.9)" style="fill:#010101"/><path d="M87.7,35.2H86.3v9.1h1.8v.5H79.2v-.5H81V26.4H79.2v-.6h8.2a25.1,25.1,0,0,1,5,.4,7.2,7.2,0,0,1,2.1.9,4,4,0,0,1,1.3,3.4,4.5,4.5,0,0,1-1.1,3.3,6.3,6.3,0,0,1-3.5,1.1h0a5.3,5.3,0,0,1,3.1,1.3,5.2,5.2,0,0,1,.8,3.4v1.4a6.6,6.6,0,0,0,.2,1.9c.1.4.3.5.6.5a.8.8,0,0,0,.8-.4,5,5,0,0,0,.5-1.9h.5a5.4,5.4,0,0,1-1.1,3.1c-.5.6-1.4.8-2.9.8a4.1,4.1,0,0,1-3.2-1c-.6-.7-.9-2-.9-4V38.2a6.3,6.3,0,0,0-.4-2.3A1.8,1.8,0,0,0,87.7,35.2Zm-1.4-8.8v8.3h.9a2.9,2.9,0,0,0,2.3-.9,5.3,5.3,0,0,0,.7-3.1v-.8c0-1.4-.2-2.4-.7-2.8a3.2,3.2,0,0,0-2.3-.7Z" transform="translate(-3 -1.9)" style="fill:#010101"/><path d="M106.5,44.5a4,4,0,0,0,2.4-.7,2.5,2.5,0,0,0,1.1-2.2,2.8,2.8,0,0,0-1.1-2.3,14.1,14.1,0,0,0-3.2-1.3l-3.1-1.1a4.5,4.5,0,0,1-1.7-1.1c-1.2-.9-1.7-2.4-1.7-4.4a5.7,5.7,0,0,1,1.7-4.1,6.2,6.2,0,0,1,4.7-1.7,10.3,10.3,0,0,1,3,.4l2,.4q.3,0,.6-.6h.3l.2,5.5h-.4a25,25,0,0,0-2.7-3.8,4.6,4.6,0,0,0-3.1-1.4,4,4,0,0,0-2.6.8A2.6,2.6,0,0,0,102,29a2,2,0,0,0,1.1,1.9,8.5,8.5,0,0,0,2.7,1.2l2.1.6,1.2.4,1.2.6,1,.8a4.1,4.1,0,0,1,.9,1,7.4,7.4,0,0,1,.7,3.1,6.1,6.1,0,0,1-1.8,4.7,6.9,6.9,0,0,1-4.9,1.8,15.6,15.6,0,0,1-3.5-.4l-2.2-.4c-.3,0-.5.3-.7.8h-.4l-.3-6.4h.5a17.3,17.3,0,0,0,3,4.1A5.7,5.7,0,0,0,106.5,44.5Z" transform="translate(-3 -1.9)" style="fill:#010101"/><path d="M128.5,25.8h8.9v.6h-1.5V38.1c0,2.4-.6,4.2-1.7,5.3a6.6,6.6,0,0,1-4.9,1.7,5.8,5.8,0,0,1-3.5-.9,2.8,2.8,0,0,1-.7-4.1,2.4,2.4,0,0,1,1.8-.7,2.2,2.2,0,0,1,1.7.6,1.5,1.5,0,0,1,.5,1.3,4.1,4.1,0,0,1-.3,1.6h-1a1.6,1.6,0,0,0-.3.8.7.7,0,0,0,.4.6,1.7,1.7,0,0,0,1,.3,1.3,1.3,0,0,0,1.4-.9,13.6,13.6,0,0,0,.3-3.7V26.4h-2.1Z" transform="translate(-3 -1.9)" style="fill:#010101"/><path d="M147.8,44.3l-2-5.8h-5.4l-2.1,5.8h2.1v.5h-4.2v-.5h1.3l6.9-18.6h2.2l6.9,18.6h1.2v.5h-8.9v-.5Zm-4.6-13.5-2.6,7.1h5Z" transform="translate(-3 -1.9)" style="fill:#010101"/><path d="M163.8,35.2h-1.5v9.1h1.8v.5h-8.8v-.5H157V26.4h-1.7v-.6h8.2a26.7,26.7,0,0,1,5,.4,7.2,7.2,0,0,1,2.1.9,4.3,4.3,0,0,1,1.3,3.4,4.2,4.2,0,0,1-1.2,3.3,6,6,0,0,1-3.5,1.1h0a5.3,5.3,0,0,1,3.1,1.3,5.1,5.1,0,0,1,.9,3.4v1.4a8.2,8.2,0,0,0,.1,1.9c.1.4.3.5.7.5a.8.8,0,0,0,.7-.4,7,7,0,0,0,.6-1.9h.4a5.5,5.5,0,0,1-1,3.1c-.5.6-1.5.8-3,.8a3.9,3.9,0,0,1-3.1-1c-.7-.7-1-2-1-4V38.2a4.7,4.7,0,0,0-.4-2.3A1.5,1.5,0,0,0,163.8,35.2Zm-1.5-8.8v8.3h.9a2.9,2.9,0,0,0,2.3-.9,5.3,5.3,0,0,0,.7-3.1v-.8c0-1.4-.2-2.4-.7-2.8a3,3,0,0,0-2.3-.7Z" transform="translate(-3 -1.9)" style="fill:#010101"/><path d="M193.7,35c0,3.7-1.1,6.3-3.2,7.8s-4.6,2-8,2h-7.6v-.5h1.8V26.4h-1.8v-.6h8.4c3.4,0,6,.8,7.8,2.2S193.7,31.7,193.7,35ZM182,44.3h1a4.2,4.2,0,0,0,3.9-1.9c.8-1.3,1.2-3.5,1.2-6.5V34.3c0-4.1-.8-6.5-2.3-7.3a7,7,0,0,0-3.2-.6H182Z" transform="translate(-3 -1.9)" style="fill:#010101"/><path d="M195.5,25.8h8.2v.6h-1.5V44.3h1.5v.5h-8.2v-.5H197V26.4h-1.5Z" transform="translate(-3 -1.9)" style="fill:#010101"/><path d="M220.4,26.4V44.8h-3.8l-9.3-17.5v17h1.5v.5h-3.7v-.5h1.5V26.4h-1.5v-.6h7.5l7.1,13.7V26.4h-1.5v-.6h3.7v.6Z" transform="translate(-3 -1.9)" style="fill:#010101"/><path d="M231.4,44.5a4,4,0,0,0,2.4-.7,2.5,2.5,0,0,0,1.1-2.2,2.7,2.7,0,0,0-1.2-2.3,11,11,0,0,0-3.2-1.3l-3-1.1a4.5,4.5,0,0,1-1.7-1.1c-1.2-.9-1.7-2.4-1.7-4.4a5.3,5.3,0,0,1,1.7-4.1,6.1,6.1,0,0,1,4.7-1.7,10.3,10.3,0,0,1,3,.4l1.9.4c.3,0,.5-.2.7-.6h.3l.2,5.5h-.4a19.7,19.7,0,0,0-2.8-3.8,4.2,4.2,0,0,0-3-1.4,3.8,3.8,0,0,0-2.6.8,2.4,2.4,0,0,0-1,2.1,2.1,2.1,0,0,0,1.1,1.9,11.1,11.1,0,0,0,2.7,1.2l2.1.6,1.3.4,1.2.6,1,.8a3.5,3.5,0,0,1,.8,1,6.2,6.2,0,0,1,.8,3.1,5.8,5.8,0,0,1-1.9,4.7,6.5,6.5,0,0,1-4.8,1.8,15.6,15.6,0,0,1-3.5-.4l-2.2-.4c-.3,0-.5.3-.8.8h-.3l-.3-6.4h.4a17.7,17.7,0,0,0,3.1,4.1A5.3,5.3,0,0,0,231.4,44.5Z" transform="translate(-3 -1.9)" style="fill:#010101"/><path d="M14.7,22a4.2,4.2,0,0,1-1.8-1.3l.2-.2a7,7,0,0,0,1.8,1.2,6.1,6.1,0,0,0,2.4.4,4.6,4.6,0,0,0,2.9-.7,2.6,2.6,0,0,0,1.1-2.1,2,2,0,0,0-.6-1.5,3,3,0,0,0-1.3-.9l-2-.6a7.1,7.1,0,0,1-2.2-.7,3.4,3.4,0,0,1-1.4-.9,2.8,2.8,0,0,1-.6-1.8,3,3,0,0,1,.5-1.6,2.7,2.7,0,0,1,1.4-1.1,5.2,5.2,0,0,1,2.3-.5,4.5,4.5,0,0,1,2,.4,4.5,4.5,0,0,1,1.7.8l-.2.3a3.5,3.5,0,0,0-1.6-.8l-1.8-.3a4,4,0,0,0-2.9.8,2.3,2.3,0,0,0-1,2,2.5,2.5,0,0,0,.5,1.6,3.8,3.8,0,0,0,1.3.9l2.1.6,2.2.6a7.1,7.1,0,0,1,1.4,1,2.9,2.9,0,0,1,.5,1.7,2.4,2.4,0,0,1-.5,1.6,2.8,2.8,0,0,1-1.4,1.2,7.2,7.2,0,0,1-5-.1Z" transform="translate(-3 -1.9)" style="fill:#010101"/><path d="M35.3,18.6H27.5l-1.7,3.8h-.5L31.2,9.8h.4l5.8,12.6H37Zm-.2-.3-3.7-8-3.7,8Z" transform="translate(-3 -1.9)" style="fill:#010101"/><path d="M42.5,9.8h.4V22.1h7.5v.3H42.5Z" transform="translate(-3 -1.9)" style="fill:#010101"/><path d="M57.1,21.7a6.5,6.5,0,0,1-3.2-5.6,6.3,6.3,0,0,1,.9-3.3,5.4,5.4,0,0,1,2.3-2.2,6.5,6.5,0,0,1,6.6,0A5.4,5.4,0,0,1,66,12.8a6.5,6.5,0,0,1,0,6.6,6.3,6.3,0,0,1-2.3,2.3,7.2,7.2,0,0,1-6.6,0Zm6.4-.3a5.8,5.8,0,0,0,2.2-2.2,5.5,5.5,0,0,0,.8-3.1,5.8,5.8,0,0,0-.8-3.1,5,5,0,0,0-2.2-2.1,5.3,5.3,0,0,0-3.1-.8,5.5,5.5,0,0,0-3.1.8A5.6,5.6,0,0,0,55.1,13a6.8,6.8,0,0,0-.8,3.1,6.5,6.5,0,0,0,.8,3.1,6.6,6.6,0,0,0,2.2,2.2,6.4,6.4,0,0,0,3.1.7A6.2,6.2,0,0,0,63.5,21.4Z" transform="translate(-3 -1.9)" style="fill:#010101"/><path d="M82.8,9.8V22.4h-.3L73.2,10.5V22.4h-.3V9.8h.3l9.2,12V9.8Z" transform="translate(-3 -1.9)" style="fill:#010101"/><path d="M99.6,58.2a5.3,5.3,0,0,1,2.7,4.7,8.5,8.5,0,0,1-2.3,5.4A29.5,29.5,0,0,1,94.8,73c-1.9,1.3-4.5,2.9-7.6,4.8l-2.6,1.5-2.9,2a20.5,20.5,0,0,1,5,.8l3.4.6,3,.3a8,8,0,0,0,3.8-.8A2.3,2.3,0,0,0,98.4,80c0-1.2-.8-2.2-2.3-3l.7-.8a5.4,5.4,0,0,1,3.4,5.2,7.8,7.8,0,0,1-2.4,5.8q-2.4,2.4-7.2,2.4l-2.9-.3-3-.6L81,88a16.9,16.9,0,0,0-3.3-.3,14.7,14.7,0,0,0-3.2.4,21.9,21.9,0,0,0-3.4,1.1l.3-1.3,3.5-2.6c3.4-2.5,6.4-4.9,8.9-7a38.7,38.7,0,0,0,6.8-7.2,13.1,13.1,0,0,0,2.9-7.9,5.1,5.1,0,0,0-1.2-3.7,4.5,4.5,0,0,0-3.5-1.3A8.8,8.8,0,0,0,84,59.6a11.9,11.9,0,0,0-4.1,3.6,7.7,7.7,0,0,0-1.7,4.5,2.7,2.7,0,0,0,.9,2.3,3.8,3.8,0,0,0,2.7.7,6.8,6.8,0,0,0,2.9-.6,12.6,12.6,0,0,0,2.8-1.9l.7.8a9.3,9.3,0,0,1-3.4,2.3,8.6,8.6,0,0,1-3.4.7,5.8,5.8,0,0,1-3.3-.9,3.7,3.7,0,0,1-1.4-3.3,8.8,8.8,0,0,1,2.1-5.4,14.7,14.7,0,0,1,5.6-4.3,18.3,18.3,0,0,1,7.9-1.7A12.9,12.9,0,0,1,99.6,58.2Z" transform="translate(-3 -1.9)" style="fill:#80c8bd"/><path d="M131,58a5.3,5.3,0,0,1,2.8,4.5c0,2.7-1.5,5-4.4,7a29.5,29.5,0,0,1-9.9,4.3c3.5.1,6.4.7,8.5,2a5.9,5.9,0,0,1,3.2,5.6c0,3.3-1.7,6.3-5.1,8.8a40.5,40.5,0,0,1-12.7,6.1,57.5,57.5,0,0,1-14.2,2.3l.3-1.2a36.1,36.1,0,0,0,10.4-2.3,24.8,24.8,0,0,0,8.8-5.9,12.5,12.5,0,0,0,3.4-8.8,7.6,7.6,0,0,0-.9-4,3.6,3.6,0,0,0-2.8-1.6l-2,.7-1.6.3c-.9,0-1.3-.3-1.1-.9s1.2-1.2,3-1.2h1.2a15.1,15.1,0,0,0,5.5-4,8.8,8.8,0,0,0,2.1-5.8,5.2,5.2,0,0,0-1.5-4,5.7,5.7,0,0,0-4.2-1.5,9.6,9.6,0,0,0-4.3,1,11.5,11.5,0,0,0-3.6,2.8,5.8,5.8,0,0,0-1.4,3.5,2.9,2.9,0,0,0,.9,2.3,4.4,4.4,0,0,0,2.7.7,7.9,7.9,0,0,0,3.8-.9l.7.9a10.9,10.9,0,0,1-4.9,1.3,5.8,5.8,0,0,1-3.3-.9,3.9,3.9,0,0,1-1.4-3.3,7,7,0,0,1,2-4.5,13.5,13.5,0,0,1,5.4-3.6,17.6,17.6,0,0,1,7.3-1.4A13.9,13.9,0,0,1,131,58Z" transform="translate(-3 -1.9)" style="fill:#80c8bd"/><path d="M145.7,86.1a3.3,3.3,0,0,1-1.2,1.7,3.1,3.1,0,0,1-2.1.7,4,4,0,0,1-2.2-.6,3.6,3.6,0,0,1-1.4-1.6,6,6,0,0,1-.5-2.4,7.6,7.6,0,0,1,.5-2.7,4.7,4.7,0,0,1,1.4-1.7,3.7,3.7,0,0,1,2.1-.6,3.3,3.3,0,0,1,2.5.9,4.5,4.5,0,0,1,.8,3h-5.5c0,.3-.1.7-.1,1.1a5.4,5.4,0,0,0,.4,2,3.9,3.9,0,0,0,1,1.4,2.5,2.5,0,0,0,1.4.4,2.8,2.8,0,0,0,1.5-.4,2.9,2.9,0,0,0,1.1-1.3ZM140.8,80a5.2,5.2,0,0,0-.7,2.4h3.8a4.1,4.1,0,0,0-.4-2.3,1.3,1.3,0,0,0-1.2-.9A1.9,1.9,0,0,0,140.8,80Zm3.7-5.7a.9.9,0,0,1-.3.6,4.7,4.7,0,0,1-1,1l-.6.6-1.2,1.1h-.2a9.4,9.4,0,0,0,1.2-2.2l.7-1.2a.9.9,0,0,1,.7-.4h.4C144.4,74,144.5,74.1,144.5,74.3Z" transform="translate(-3 -1.9)" style="fill:#80c8bd"/><path d="M155.4,87.5a1.3,1.3,0,0,0,1,.4v.3h-1.1l-1.8.2V86.9a4,4,0,0,1-1,1.2,2.5,2.5,0,0,1-1.6.4,3.1,3.1,0,0,1-2.6-1.2,5.3,5.3,0,0,1-1-3.6,5.3,5.3,0,0,1,.6-2.6,3.4,3.4,0,0,1,1.4-1.7,4.6,4.6,0,0,1,2-.5l1.3.2.9.8V76.5a1.7,1.7,0,0,0-.3-1.2,1.2,1.2,0,0,0-1.1-.4v-.4h1.1a5,5,0,0,0,1.9-.3v12A1.9,1.9,0,0,0,155.4,87.5Zm-2.7-.1a2.7,2.7,0,0,0,.8-1.5V80.6a2,2,0,0,0-2-1.3,2.1,2.1,0,0,0-1.8,1.1,7,7,0,0,0-.7,3.3,5.6,5.6,0,0,0,.7,3.2,2,2,0,0,0,1.8,1.1A1.7,1.7,0,0,0,152.7,87.4Z" transform="translate(-3 -1.9)" style="fill:#80c8bd"/><path d="M160.2,86.6a1.3,1.3,0,0,0,.3,1,1.6,1.6,0,0,0,1.1.3v.3h-4.3v-.3a1.1,1.1,0,0,0,1.3-1.3V81a1.6,1.6,0,0,0-.3-1.1,1.1,1.1,0,0,0-1-.4v-.4h1.1a4.8,4.8,0,0,0,1.8-.3ZM160.1,75a1.2,1.2,0,0,1,0,1.6,1,1,0,0,1-1.6,0,1.1,1.1,0,0,1,1.6-1.6Z" transform="translate(-3 -1.9)" style="fill:#80c8bd"/><path d="M165.3,79.1H168v.4h-2.7v6.8a1.7,1.7,0,0,0,.3,1.2,1.3,1.3,0,0,0,.9.4,1.4,1.4,0,0,0,.9-.5,3.7,3.7,0,0,0,.7-1.4h.3c-.3,1.7-1,2.5-2.3,2.5l-1-.2a1.3,1.3,0,0,1-.7-.4,3.1,3.1,0,0,1-.5-1,4.9,4.9,0,0,1-.2-1.5V79.5H162v-.4h1.7V76.4l1.6-.2Z" transform="translate(-3 -1.9)" style="fill:#80c8bd"/><path d="M171.7,86.6a1.1,1.1,0,0,0,1.3,1.3v.3h-4.2v-.3a1.5,1.5,0,0,0,1-.3,1.3,1.3,0,0,0,.3-1V81a1.6,1.6,0,0,0-.3-1.1,1.2,1.2,0,0,0-1-.4v-.4h1.1a4.8,4.8,0,0,0,1.8-.3ZM171.6,75a1.2,1.2,0,0,1,0,1.6c-.3.2-.5.4-.8.4a1.1,1.1,0,0,1-.8-2,1.1,1.1,0,0,1,.8-.3A1.3,1.3,0,0,1,171.6,75Z" transform="translate(-3 -1.9)" style="fill:#80c8bd"/><path d="M181.2,80.1a6.4,6.4,0,0,1,0,7.2,4.1,4.1,0,0,1-5.8,0,4.9,4.9,0,0,1-1.1-3.6,4.9,4.9,0,0,1,1.1-3.6,4.1,4.1,0,0,1,5.8,0Zm-4.6.2a7.4,7.4,0,0,0-.6,3.4,7.7,7.7,0,0,0,.6,3.4,1.9,1.9,0,0,0,3.4,0,7.7,7.7,0,0,0,.6-3.4,7.4,7.4,0,0,0-.6-3.4,1.9,1.9,0,0,0-3.4,0Z" transform="translate(-3 -1.9)" style="fill:#80c8bd"/><path d="M191.5,79.5a4.1,4.1,0,0,1,.5.9,6.6,6.6,0,0,1,.1,1.5v4.7a1.3,1.3,0,0,0,.3,1,1.6,1.6,0,0,0,1.1.3v.3h-4.2v-.3a1.3,1.3,0,0,0,1-.3,2.2,2.2,0,0,0,.2-1V81.5a2.8,2.8,0,0,0-.3-1.5,1.1,1.1,0,0,0-1.1-.6,2.1,2.1,0,0,0-1.3.5,2,2,0,0,0-.9,1.1,4.7,4.7,0,0,0-.3,1.7v3.9a1.3,1.3,0,0,0,.3,1q.2.3.9.3v.3h-4.1v-.3a1.1,1.1,0,0,0,1.3-1.3V81a1.6,1.6,0,0,0-.3-1.1,1.1,1.1,0,0,0-1-.4v-.4h1.1a4.8,4.8,0,0,0,1.8-.3V81a3.4,3.4,0,0,1,1.2-1.6,2.9,2.9,0,0,1,1.8-.5A2.7,2.7,0,0,1,191.5,79.5Z" transform="translate(-3 -1.9)" style="fill:#80c8bd"/><path d="M198.5,79.1l.8.4.4.2c.2,0,.3-.3.3-.8h.5a22.8,22.8,0,0,0-.1,3H200a4.7,4.7,0,0,0-.8-1.9,1.8,1.8,0,0,0-1.6-.8,1.4,1.4,0,0,0-1.1.4,1.1,1.1,0,0,0-.4,1,1.8,1.8,0,0,0,.4,1l1.4,1,.5.3,1.3.9a3.9,3.9,0,0,1,.8,1,2.1,2.1,0,0,1,.3,1.2,2,2,0,0,1-.9,1.8,3.1,3.1,0,0,1-2.1.7,2.9,2.9,0,0,1-1.4-.3l-.7-.4h-.2a.2.2,0,0,0-.2.2c-.1.1-.1.3-.2.5h-.4a32.4,32.4,0,0,0,.1-3.6h.4a6.3,6.3,0,0,0,.7,2.5c.3.6.9.8,1.8.8a1.7,1.7,0,0,0,1.1-.4,1.5,1.5,0,0,0,.4-1.2,1.6,1.6,0,0,0-.4-1.2l-1.6-1.2-1.3-.9a3,3,0,0,1-.8-.8,2.7,2.7,0,0,1-.3-1.2,1.8,1.8,0,0,1,.7-1.7,3.1,3.1,0,0,1,1.9-.6A2,2,0,0,1,198.5,79.1Z" transform="translate(-3 -1.9)" style="fill:#80c8bd"/><path d="M141.9,66.7a1.5,1.5,0,0,1-.6.9,1.6,1.6,0,0,1-1.2.4,2,2,0,0,1-1.1-.3,1.8,1.8,0,0,1-.8-.9,2.8,2.8,0,0,1-.3-1.3,3.2,3.2,0,0,1,.3-1.4,1.8,1.8,0,0,1,.8-.9,1.5,1.5,0,0,1,1.1-.4,1.7,1.7,0,0,1,1.3.5,2.5,2.5,0,0,1,.5,1.6h-3v.6a2,2,0,0,0,.2,1.1,1.3,1.3,0,0,0,.5.7,1.1,1.1,0,0,0,.7.3l.8-.2a1.2,1.2,0,0,0,.6-.8Zm-2.8-6.6c.2,0,.3,0,.4.2l.4.6.6,1.2h-.1l-.6-.6-.3-.4a1,1,0,0,1-.6-.5.5.5,0,0,1,0-.6Zm.2,3.3a2.5,2.5,0,0,0-.4,1.3H141a2.1,2.1,0,0,0-.3-1.2.6.6,0,0,0-.6-.5A1.2,1.2,0,0,0,139.3,63.4Z" transform="translate(-3 -1.9)" style="fill:#80c8bd"/><path d="M150,67.5l.6.2v.2h-2.2v-.2l.5-.2a.7.7,0,0,0,.1-.5V63.6c0-.1-.1-.2-.2-.3l-.5-.2a.9.9,0,0,0-.6.3,1,1,0,0,0-.5.6,2,2,0,0,0-.2.9V67a.8.8,0,0,0,.2.5l.5.2v.2h-2.2v-.2a.6.6,0,0,0,.5-.2.8.8,0,0,0,.2-.5V64.2a1.3,1.3,0,0,0-.1-.6c0-.1-.1-.2-.2-.3l-.4-.2a.9.9,0,0,0-.7.3,1,1,0,0,0-.5.6,2.5,2.5,0,0,0-.1.9V67a.7.7,0,0,0,.1.5l.5.2v.2h-2.2v-.2a1.1,1.1,0,0,0,.6-.2.7.7,0,0,0,.1-.5V64c0-.3,0-.5-.1-.6s-.3-.2-.6-.2V63h1.6V64a1.5,1.5,0,0,1,.6-.9,1.6,1.6,0,0,1,.9-.3,1.1,1.1,0,0,1,1,.4,1,1,0,0,1,.3.8,2.2,2.2,0,0,1,.7-.9,1.2,1.2,0,0,1,.9-.3,1.3,1.3,0,0,1,1,.4.8.8,0,0,1,.2.5,1.5,1.5,0,0,1,.1.7V67A.7.7,0,0,0,150,67.5Z" transform="translate(-3 -1.9)" style="fill:#80c8bd"/><path d="M155.1,66.7a1.5,1.5,0,0,1-.6.9,1.5,1.5,0,0,1-1.1.4,2.1,2.1,0,0,1-1.2-.3,2.4,2.4,0,0,1-.8-.9,5.1,5.1,0,0,1-.2-1.3,3.2,3.2,0,0,1,.3-1.4,1.6,1.6,0,0,1,.7-.9,1.5,1.5,0,0,1,1.1-.4,1.7,1.7,0,0,1,1.3.5,2.1,2.1,0,0,1,.5,1.6h-3v.6a3.6,3.6,0,0,0,.2,1.1,1.1,1.1,0,0,0,.6.7.9.9,0,0,0,.7.3l.8-.2a2.8,2.8,0,0,0,.6-.8Zm-2.6-3.3a4,4,0,0,0-.4,1.3h2.1a3.7,3.7,0,0,0-.2-1.2c-.2-.3-.4-.5-.7-.5A1.2,1.2,0,0,0,152.5,63.4Z" transform="translate(-3 -1.9)" style="fill:#80c8bd"/><polyline points="69.9 73.3 0.5 73.3 0.5 13.9 5.3 13.9" style="fill:none;stroke:#010101;stroke-miterlimit:10"/><polyline points="160.5 13.9 243.6 13.9 243.6 73.3 175 73.3" style="fill:none;stroke:#010101;stroke-miterlimit:10"/><path d="M155.3,47.1h.3v9.5h5.8v.3h-6.1Z" transform="translate(-3 -1.9)" style="fill:#010101"/><path d="M168.9,53.3h-6.5a3.4,3.4,0,0,0,.5,1.7,3.4,3.4,0,0,0,1.2,1.2,3.1,3.1,0,0,0,1.7.5,3.5,3.5,0,0,0,1.4-.3,2.8,2.8,0,0,0,1-.9l.2.2a3.1,3.1,0,0,1-1.1.9,4,4,0,0,1-1.5.3,4.1,4.1,0,0,1-1.9-.4,5.8,5.8,0,0,1-1.3-1.4,3.4,3.4,0,0,1-.4-1.8,3.8,3.8,0,0,1,.4-1.9,3,3,0,0,1,1.2-1.3,3.1,3.1,0,0,1,3.4,0,3,3,0,0,1,1.2,1.3,3.5,3.5,0,0,1,.5,1.8Zm-4.9-3a2.9,2.9,0,0,0-1.1,1.1,4.3,4.3,0,0,0-.5,1.6h6.2a3,3,0,0,0-.5-1.6,2.3,2.3,0,0,0-1.1-1.1,3,3,0,0,0-3,0Z" transform="translate(-3 -1.9)" style="fill:#010101"/><path d="M182.3,47.1l-4.4,9.8h-.3l-4.4-9.8h.4l4.2,9.4,4.2-9.4Z" transform="translate(-3 -1.9)" style="fill:#010101"/><path d="M187.5,50.3a2.6,2.6,0,0,1,.7,1.9v4.7h-.3V55.3a2.5,2.5,0,0,1-1.1,1.2,2.9,2.9,0,0,1-1.7.4,3,3,0,0,1-1.8-.5,1.9,1.9,0,0,1-.1-2.9,2.7,2.7,0,0,1,2-.5h2.7v-.8a2.1,2.1,0,0,0-.6-1.7,2.4,2.4,0,0,0-1.7-.6,4,4,0,0,0-1.5.3,2.6,2.6,0,0,0-1.1.7l-.2-.2a3.6,3.6,0,0,1,1.2-.8,4.1,4.1,0,0,1,1.6-.3A2.4,2.4,0,0,1,187.5,50.3Zm.4,4.5V53.2h-2.8a2.9,2.9,0,0,0-1.7.5,1.3,1.3,0,0,0-.5,1.2,1.6,1.6,0,0,0,.6,1.3,2.5,2.5,0,0,0,1.6.5A2.8,2.8,0,0,0,187.9,54.8Z" transform="translate(-3 -1.9)" style="fill:#010101"/><path d="M197.3,49.7v7.2h-.2V55a3.1,3.1,0,0,1-1.1,1.4,3.5,3.5,0,0,1-1.8.5,2.6,2.6,0,0,1-2.2-.8,2.9,2.9,0,0,1-.8-2.2V49.7h.3v4.2a2.8,2.8,0,0,0,.7,2.1,2.7,2.7,0,0,0,1.9.7,2.7,2.7,0,0,0,2.2-.9,3.1,3.1,0,0,0,.8-2.2V49.7Z" transform="translate(-3 -1.9)" style="fill:#010101"/><path d="M206.7,46.5V56.9h-.3V54.7a2.8,2.8,0,0,1-1.2,1.6,3.4,3.4,0,0,1-2,.6,3.9,3.9,0,0,1-1.8-.4,4.1,4.1,0,0,1-1.2-1.4,3.5,3.5,0,0,1-.5-1.8,3.8,3.8,0,0,1,.5-1.9,3,3,0,0,1,1.2-1.3,4.1,4.1,0,0,1,1.8-.5,3.6,3.6,0,0,1,2,.6,3,3,0,0,1,1.2,1.7V46.5Zm-1.9,9.7A3.4,3.4,0,0,0,206,55a3.3,3.3,0,0,0,.4-1.7,3.2,3.2,0,0,0-1.6-3,3.4,3.4,0,0,0-3.2,0,3.2,3.2,0,0,0-1.6,3,3.3,3.3,0,0,0,.4,1.7,3.4,3.4,0,0,0,1.2,1.2,2.8,2.8,0,0,0,3.2,0Z" transform="translate(-3 -1.9)" style="fill:#010101"/><path d="M211.2,50.1a3.5,3.5,0,0,1,1.8-.5v.3h-.1a2.8,2.8,0,0,0-2,.8,3.3,3.3,0,0,0-.7,2.3v3.9h-.3V49.7h.3v1.8A2.8,2.8,0,0,1,211.2,50.1Z" transform="translate(-3 -1.9)" style="fill:#010101"/><path d="M220.9,53.3h-6.4a3.3,3.3,0,0,0,.4,1.7,3.4,3.4,0,0,0,1.2,1.2,3.4,3.4,0,0,0,1.7.5,3.2,3.2,0,0,0,1.4-.3,2.2,2.2,0,0,0,1-.9l.2.2a3.1,3.1,0,0,1-1.1.9,4,4,0,0,1-1.5.3,2.9,2.9,0,0,1-3.1-1.8,3.5,3.5,0,0,1-.5-1.8,3.8,3.8,0,0,1,.4-1.9,3,3,0,0,1,1.2-1.3,3.4,3.4,0,0,1,1.7-.5,3.1,3.1,0,0,1,1.7.5,3,3,0,0,1,1.2,1.3,3.5,3.5,0,0,1,.5,1.8Zm-4.9-3a3.8,3.8,0,0,0-1.1,1.1,2.9,2.9,0,0,0-.4,1.6h6.1a4.2,4.2,0,0,0-.4-1.6,3.2,3.2,0,0,0-1.2-1.1,2.4,2.4,0,0,0-1.5-.4A2.8,2.8,0,0,0,216,50.3Z" transform="translate(-3 -1.9)" style="fill:#010101"/><path d="M229.3,49.7v7.2H229V55a2.6,2.6,0,0,1-1.1,1.4,3.5,3.5,0,0,1-1.8.5,2.9,2.9,0,0,1-2.2-.8,2.9,2.9,0,0,1-.7-2.2V49.7h.2v4.2a3.3,3.3,0,0,0,.7,2.1,3,3,0,0,0,2,.7,2.6,2.6,0,0,0,2.1-.9,2.7,2.7,0,0,0,.8-2.2V49.7Z" transform="translate(-3 -1.9)" style="fill:#010101"/><path d="M232.4,47.6a.4.4,0,0,1-.1-.3c0-.1,0-.2.1-.2a.2.2,0,0,1,.2-.2l.3.2c.1,0,.1.1.1.2a.4.4,0,0,1-.1.3h-.5Zm.1,2.1h.3v7.2h-.3Z" transform="translate(-3 -1.9)" style="fill:#010101"/><path d="M236,46.5h.3V56.9H236Z" transform="translate(-3 -1.9)" style="fill:#010101"/></svg>