<svg id="site-logo" xmlns="http://www.w3.org/2000/svg" viewBox="0 0 810.29 452.94"><defs><style>.cls-1{fill:#141412;}.cls-2{fill:#7fc7bd;}.cls-3{fill:#262623;}</style></defs>
    <title>logo-2</title>

    <g id="Salon"><path class="cls-3" d="M495.65,278.51V158.43h3.73V275.12h59.7v3.39Z" transform="translate(-236.17 -155.03)"></path>
        <path class="cls-3" d="M690.7,218.47A68,68,0,0,1,686,244a60.5,60.5,0,0,1-12.89,20,59,59,0,0,1-19.59,13.15,66.05,66.05,0,0,1-49.19,0A58.8,58.8,0,0,1,584.78,264a60.35,60.35,0,0,1-12.89-20,72.12,72.12,0,0,1,0-51.06,60.35,60.35,0,0,1,12.89-20,59,59,0,0,1,19.51-13.15,66.47,66.47,0,0,1,49.35,0,59.17,59.17,0,0,1,19.51,13.15,60.5,60.5,0,0,1,12.89,20A68,68,0,0,1,690.7,218.47Zm-3.73,0A64.34,64.34,0,0,0,682.73,195a57.57,57.57,0,0,0-12-19.08,55.76,55.76,0,0,0-18.4-12.81,61.11,61.11,0,0,0-46.81,0,55.81,55.81,0,0,0-18.41,12.81A57.55,57.55,0,0,0,575.2,195,64.34,64.34,0,0,0,571,218.47,65.58,65.58,0,0,0,575.11,242,57.16,57.16,0,0,0,586.9,261a54.82,54.82,0,0,0,18.32,12.81,62.83,62.83,0,0,0,47.49,0A54.92,54.92,0,0,0,671,261,57.32,57.32,0,0,0,682.82,242,65.58,65.58,0,0,0,687,218.47Z" transform="translate(-236.17 -155.03)"></path>
        <path class="cls-3" d="M811.3,278.51,725.14,163.18h-.51V278.51H720.9V158.43h5.25L812.49,273.6H813V158.43h3.73V278.51Z" transform="translate(-236.17 -155.03)"></path>
        <path class="cls-3" d="M352.5,249.68a27.78,27.78,0,0,0-2.8-13,26.77,26.77,0,0,0-7.8-9.07,50.46,50.46,0,0,0-11.62-6.36q-6.61-2.62-14.25-5.17c-3.73-1.25-7.38-2.6-10.94-4.08a38.73,38.73,0,0,1-9.58-5.59,25.87,25.87,0,0,1-6.79-8.23,25,25,0,0,1-2.54-11.79A25.39,25.39,0,0,1,289.06,174a26.42,26.42,0,0,1,7.63-8.73,33.65,33.65,0,0,1,10.6-5.18,42.77,42.77,0,0,1,12-1.69,38.81,38.81,0,0,1,16,3.3A32.08,32.08,0,0,1,347.41,171l2.88-2.55a34.41,34.41,0,0,0-13.48-9.92A44.19,44.19,0,0,0,319.42,155a46.7,46.7,0,0,0-14.16,2.12,37.07,37.07,0,0,0-11.79,6.11,28.45,28.45,0,0,0-11,23.15,30.9,30.9,0,0,0,2.45,13,26.36,26.36,0,0,0,7,9.16A41.34,41.34,0,0,0,302.54,215q6.19,2.64,13.66,5,5.94,1.86,11.79,4.15a45,45,0,0,1,10.43,5.68,28.5,28.5,0,0,1,7.46,8.15,22.16,22.16,0,0,1,2.88,11.7c0,.44,0,.86-.06,1.29h3.73C352.45,250.53,352.5,250.12,352.5,249.68Z" transform="translate(-236.17 -155.03)"></path>
        <path class="cls-3" d="M424.58,158.43h-4.75L379.7,251h3.94l2.95-6.89H456.3l14.25,34.43h4.07Zm-36.64,82.43L422,160.8l33.07,80.06Z" transform="translate(-236.17 -155.03)"></path>
    </g>

    <g id="Fleurs"><path class="cls-1" d="M268,262.69H368l1.92,40h-3.46Q359.3,281.9,350,274.41t-27.76-7.5h-5.39v62.45h8.65a20,20,0,0,0,15.37-6.72q6.15-6.72,8.46-18.45h2.88v56.88h-3.26q-3.09-14.42-8.56-20.56t-14.89-6.15h-8.65V393h23.83v4.23H268V393h11.33V266.91H268Z" transform="translate(-236.17 -155.03)"></path>
        <path class="cls-1" d="M378.9,262.69H426V393.74h10.76v3.46H379.67v-3.46h10.57V266.14H378.9Z" transform="translate(-236.17 -155.03)"></path>
        <path class="cls-1" d="M453.75,386.34q-12.4-12.78-12.4-35.55t13.93-34.88q13.94-12.11,35.46-12.1,43.62,0,41.89,43.81H478.44v7.49q0,18.84,4.8,28.44T500,393.16q22.29,0,29.21-23.83l3.46.58q-3.66,13.83-13.17,21.52t-28.53,7.69Q466.14,399.12,453.75,386.34Zm24.88-42.56h19.79v-9.42q0-15.57-1.82-21.23t-7.3-5.67q-5.49,0-8.08,6.05t-2.59,20.85Z" transform="translate(-236.17 -155.03)"></path>
        <path class="cls-1" d="M652,397.2H608.14l-2.11-14A25.18,25.18,0,0,1,596.9,395q-6,4.13-18,4.13-29.79,0-29.79-32.09V309.19H538.39v-3.46h46.5v65.91q0,11.53,1.64,15.18t6.53,3.65q4.91,0,8.74-6T605.65,368v-58.8h-8.84v-3.46h44.58v88H652Z" transform="translate(-236.17 -155.03)"></path>
        <path class="cls-1" d="M720,311.11q-7.11,0-12.49,9.22t-5.38,21.91v51.5h13.64v3.46h-60v-3.46h10.57V309.19H655.8v-3.46h46.31v18.45q2.49-9.81,9.61-15.09a26.36,26.36,0,0,1,16.14-5.28q9,0,14.7,5.09t5.67,14.41q0,9.33-4.23,14.32t-13,5q-8.74,0-12.88-5.76t-1-15.95H724Q728.82,311.12,720,311.11Z" transform="translate(-236.17 -155.03)"></path>
        <path class="cls-1" d="M753,399.12v-34.4h2.31q5,16.72,13.45,23.44t21.14,6.73q19.59,0,19.6-12.49a8.71,8.71,0,0,0-4.81-8.07q-7.49-4.23-19.21-6.53a75,75,0,0,1-21.91-9.23Q753,351.66,753,336.67t9.23-23.93q9.21-8.92,24.59-8.93a47.77,47.77,0,0,1,19.41,4.42,16.06,16.06,0,0,0,5.57,1.54,4.45,4.45,0,0,0,3.27-1.35,22.68,22.68,0,0,0,3.27-5h2.11v29.4h-2.31q-9.79-25-30.36-25-9,0-13.45,3.17t-4.42,8a6.86,6.86,0,0,0,1.35,4.51c.89,1.09,1.6,1.9,2.11,2.41a10.05,10.05,0,0,0,2.5,1.63c1.15.57,2.11,1,2.88,1.34s2,.74,3.56,1.25a25.73,25.73,0,0,0,3.55,1,146.89,146.89,0,0,1,18.83,5.67,65.13,65.13,0,0,1,11,5.86q10.56,7.31,10.56,23.54t-9.6,24.6q-9.61,8.36-26.33,8.36a50.92,50.92,0,0,1-23.06-5.58A7.41,7.41,0,0,0,763.6,392q-4.23,0-8.26,7.11Z" transform="translate(-236.17 -155.03)"></path>
    </g>


    <path id="et" class="cls-2" d="M967.18,538.46q16.89,0,26-16.21t9.14-40q0-23.79-18.27-48.26-26.21,30-72,30t-72.91-15.51Q812.06,433,812.06,399.54q0-23.09,12.41-37.23t41.71-20.68q-30.33-27.57-30.33-60.15t22.92-49.29q22.92-16.73,57.05-16.72T967,227.88q17.06,12.41,17.06,33.43,0,36.56-55.5,55.85,6.9,4.48,25.17,15.85,38.25,24.83,54.12,40a279.65,279.65,0,0,0,5.85-50.33H986.48v-6.89h60v6.89h-24.13q-.69,32.4-6.55,58.26,14.82,16.54,22.41,31.71t7.58,38.26q0,37.23-26.19,66.53t-59.64,29.3q-22.41,0-34.81-9.31t-12.41-23.78q0-14.49,8.1-22.58t20.51-8.1q27.57,0,27.57,24.82a46.32,46.32,0,0,1-2.06,12.41H954.77Q948.56,538.44,967.18,538.46ZM920.3,455q36.54,0,57.91-28.27-15.86-16.54-44.47-35.85Q884.45,358.54,871,346.8q-5.18,11-5.17,44.81t13.44,48.6Q892.72,455,920.3,455ZM891.69,230.81q-9.3,8.1-9.31,25.68t8.28,28.95q8.26,11.38,31.71,27.58,14.48-7.57,18.1-18.27t3.62-31.37q0-40.66-30-40.67A33,33,0,0,0,891.69,230.81Z" transform="translate(-236.17 -155.03)"></path>


    <g id="Jardins"><path class="cls-1" d="M265,413.49h62.45v3.65H316.88v83q0,25.94-11.72,37.76T270,549.73q-15.56,0-24.69-6a18.86,18.86,0,0,1-9.13-16.72q0-8.25,4.61-13t12.59-4.7q8,0,11.92,4a13.42,13.42,0,0,1,3.93,9.7,33.08,33.08,0,0,1-2.11,11.44h-7.49a10.61,10.61,0,0,0-1.73,5.47,5.3,5.3,0,0,0,2.59,4.42,11.59,11.59,0,0,0,6.82,1.83c5.13,0,8.42-2,9.9-6s2.21-12.78,2.21-26.23V417.14H265Z" transform="translate(-236.17 -155.03)"></path>
        <path class="cls-1" d="M373.76,502.84h5.57V488q0-18.26-2-24.5t-7.78-6.24a11.18,11.18,0,0,0-6.24,1.82,5.69,5.69,0,0,0-2.79,5,19.26,19.26,0,0,0,1.15,6.44h4.81a27.39,27.39,0,0,1,1.53,9.7,12.54,12.54,0,0,1-4.8,9.8,17.88,17.88,0,0,1-12.11,4.13q-16.51,0-16.52-15.95,0-23.62,40.16-23.63,22.86,0,31.61,7.78t8.74,28.54v39q0,10,5.58,10,6.53,0,7.68-19.79l2.88.19q-.76,16.9-6.34,23.25t-18.25,6.34q-23.06,0-26.52-14.22-2.5,7.31-7.49,10.76T358,549.92q-28.44,0-28.44-23.25,0-13.65,10.86-18.74T373.76,502.84Zm-6.63,36.51a4,4,0,0,0,4,2.88q3,0,5.58-4.9t2.59-13.54V505.91H378q-11.92,0-11.92,17.49v3.08Q366.07,536.47,367.13,539.35Z" transform="translate(-236.17 -155.03)"></path>
        <path class="cls-1" d="M497.32,461.91q-7.11,0-12.49,9.22T479.45,493v51.5h13.64V548H433.14v-3.46h10.57V460H433.14v-3.46h46.31V475q2.49-9.81,9.6-15.09a26.39,26.39,0,0,1,16.15-5.28q9,0,14.7,5.09t5.66,14.41q0,9.33-4.22,14.32t-13,5q-8.75,0-12.88-5.76t-1.06-16h6.92Q506.15,461.92,497.32,461.91Z" transform="translate(-236.17 -155.03)"></path>
        <path class="cls-1" d="M593.59,548l-2.12-13.45q-6.53,15.38-26.51,15.37-16.53,0-25.66-11.91t-9.12-35.55q0-47.85,38-47.85,16.9,0,22.29,9.41V417H578.79v-3.46h48v131h9.42V548Zm-24.21-13q2.1,6.63,7.78,6.63t9.8-5q4.13-5,4.13-14.79V480a28,28,0,0,0-3.27-14,10.43,10.43,0,0,0-9.6-5.77q-6.35,0-8.65,8.46t-2.31,29.59v10Q567.26,528.4,569.38,535Z" transform="translate(-236.17 -155.03)"></path>
        <path class="cls-1" d="M640.47,456.53h47.08v88h10.76V548H641.24v-3.46h10.57V460H640.47Zm29-7.49q-10.18,0-14.51-5.19A19.45,19.45,0,0,1,650.66,431a17.75,17.75,0,0,1,4.71-12.68q4.7-5,14.31-5t14.61,4.51q5,4.51,5,12.88T684.48,444Q679.68,449,669.49,449Z" transform="translate(-236.17 -155.03)"></path>
        <path class="cls-1" d="M702.54,456.53h46.31v17.68A32,32,0,0,1,758.27,460q6.33-5.39,19.21-5.38,29.79,0,29.79,32.09v57.84H818V548H763.65v-3.46h7.87V482.09q0-11.54-1.53-14.89a5.62,5.62,0,0,0-5.58-3.37q-6.15,0-10.85,8.07t-4.71,19.6v53h8.26V548H702.54v-3.46h10.57V460H702.54Z" transform="translate(-236.17 -155.03)"></path>
        <path class="cls-1" d="M824.94,549.92v-34.4h2.31q5,16.72,13.45,23.45t21.14,6.72q19.59,0,19.6-12.49a8.72,8.72,0,0,0-4.81-8.07q-7.49-4.21-19.21-6.53a75.39,75.39,0,0,1-21.91-9.22q-10.56-6.93-10.57-21.91t9.23-23.93q9.23-8.93,24.59-8.93A47.77,47.77,0,0,1,878.17,459a15.84,15.84,0,0,0,5.57,1.54,4.45,4.45,0,0,0,3.27-1.35,21.85,21.85,0,0,0,3.27-5h2.11v29.39h-2.3q-9.81-25-30.37-25-9,0-13.45,3.18a9.48,9.48,0,0,0-4.42,8,6.9,6.9,0,0,0,1.35,4.52c.89,1.08,1.6,1.89,2.11,2.4a10.05,10.05,0,0,0,2.5,1.63q1.73.87,2.88,1.35c.77.32,1.95.73,3.56,1.24a25.73,25.73,0,0,0,3.55,1q13.07,3.28,18.83,5.67a65.13,65.13,0,0,1,11,5.86q10.56,7.32,10.57,23.54t-9.61,24.6q-9.62,8.36-26.33,8.36a51,51,0,0,1-23.06-5.57,7.32,7.32,0,0,0-3.65-1.54q-4.23,0-8.26,7.11Z" transform="translate(-236.17 -155.03)"></path>
    </g>

    <g id="Le_vaudreuil_27_" data-name="Le vaudreuil(27)"><path d="M335.15,607.09V566.45h4.73v36.36h17.93v4.28Z" transform="translate(-236.17 -155.03)"></path>
        <path d="M395.33,607.09H372.67V566.45h22.66v4.2H377.4v13.09h16.84v4.17H377.4v15h17.93Z" transform="translate(-236.17 -155.03)"></path>
        <path d="M458.28,566.45h5.09l-14.65,40.64h-4.67l-14.57-40.64h5l9.34,26.3a73,73,0,0,1,2.56,8.81,74.87,74.87,0,0,1,2.61-9Z" transform="translate(-236.17 -155.03)"></path>
        <path d="M502.47,607.09l-5.06-12.93H481.12l-5,12.93h-4.78l16.06-40.81h4l16,40.81Zm-6.53-17.18-4.73-12.59c-.61-1.6-1.24-3.55-1.89-5.87a51,51,0,0,1-1.75,5.87l-4.78,12.59Z" transform="translate(-236.17 -155.03)"></path>
        <path d="M551.61,566.45v26.3q0,6.94-4.19,10.92t-11.54,4q-7.33,0-11.36-4c-2.68-2.67-4-6.33-4-11V566.45h4.72V593q0,5.09,2.78,7.81c1.86,1.82,4.58,2.72,8.18,2.72q5.13,0,7.92-2.73t2.78-7.86V566.45Z" transform="translate(-236.17 -155.03)"></path>
        <path d="M602.78,586.38q0,10.07-5.46,15.39t-15.72,5.32H570.34V566.45H582.8q9.48,0,14.73,5.25T602.78,586.38Zm-5,.17q0-7.95-4-12t-11.85-4h-6.87V603h5.75q8.46,0,12.71-4.15T597.78,586.55Z" transform="translate(-236.17 -155.03)"></path>
        <path d="M624.54,590.19v16.9h-4.72V566.45H631q7.47,0,11,2.86t3.57,8.62q0,8.05-8.18,10.9l11,18.26h-5.59L633,590.19Zm0-4.06H631c3.34,0,5.78-.66,7.34-2s2.33-3.31,2.33-6-.79-4.62-2.37-5.81-4.13-1.78-7.63-1.78h-6.15Z" transform="translate(-236.17 -155.03)"></path>
        <path d="M685.64,607.09H663V566.45h22.66v4.2H667.71v13.09h16.84v4.17H667.71v15h17.93Z" transform="translate(-236.17 -155.03)"></path>
        <path d="M733.31,566.45v26.3q0,6.94-4.2,10.92t-11.54,4q-7.34,0-11.35-4c-2.68-2.67-4-6.33-4-11V566.45h4.73V593c0,3.39.92,6,2.78,7.81s4.57,2.72,8.17,2.72q5.14,0,7.92-2.73t2.78-7.86V566.45Z" transform="translate(-236.17 -155.03)"></path>
        <path d="M752,607.09V566.45h4.72v40.64Z" transform="translate(-236.17 -155.03)"></path>
        <path d="M775.88,607.09V566.45h4.73v36.36h17.93v4.28Z" transform="translate(-236.17 -155.03)"></path>
        <path d="M810.85,591.15a29.53,29.53,0,0,1,1.47-9.43,23.44,23.44,0,0,1,4.25-7.7h3.08a26.86,26.86,0,0,0-4.12,8.06,30,30,0,0,0-1.38,9,28.74,28.74,0,0,0,1.41,8.92,27.89,27.89,0,0,0,4.05,8h-3a22.57,22.57,0,0,1-4.26-7.55A28.6,28.6,0,0,1,810.85,591.15Z" transform="translate(-236.17 -155.03)"></path>
        <path d="M846.43,601.82H828.16V599.1l7.32-7.36a52.21,52.21,0,0,0,4.41-4.83,12.5,12.5,0,0,0,1.6-2.81,8.18,8.18,0,0,0,.53-3,4.65,4.65,0,0,0-1.35-3.52,5.17,5.17,0,0,0-3.75-1.31,9.47,9.47,0,0,0-3.28.57,13,13,0,0,0-3.45,2.08l-1.67-2.15a12.82,12.82,0,0,1,8.36-3.2,8.85,8.85,0,0,1,6.15,2,6.9,6.9,0,0,1,2.22,5.39,10.52,10.52,0,0,1-1.48,5.23,33.29,33.29,0,0,1-5.56,6.54l-6.08,6v.15h14.3Z" transform="translate(-236.17 -155.03)"></path>
        <path d="M859.39,601.82l11.52-24.89H855.76V574h18.49v2.53l-11.36,25.27Z" transform="translate(-236.17 -155.03)"></path>
        <path d="M891.64,591.15a28.72,28.72,0,0,1-1.47,9.32,22.33,22.33,0,0,1-4.25,7.51h-3a27.57,27.57,0,0,0,4-7.94,28.84,28.84,0,0,0,1.4-8.93,30,30,0,0,0-1.37-9,26.86,26.86,0,0,0-4.12-8.06h3.08a23.52,23.52,0,0,1,4.26,7.73A29.52,29.52,0,0,1,891.64,591.15Z" transform="translate(-236.17 -155.03)"></path>
    </g>
   
    
</svg>